<?xml version="1.0" standalone="no"?>
<!DOCTYPE svg PUBLIC "-//W3C//DTD SVG 1.1//EN" "http://www.w3.org/Graphics/SVG/1.1/DTD/svg11.dtd" >
<svg xmlns="http://www.w3.org/2000/svg">
<metadata>
Created by FontPrep 20130207 at Fri Nov  4 11:39:10 2016
 By LatinoType 3
Copyright (c) 2016 by Rick Banks. All rights reserved.
</metadata>
<defs>
<font id="a3115231cb82348cad13f789479c383d" horiz-adv-x='1024' >
  <font-face 
    font-family="F37Bolton-Bold"
    font-weight="700"
    font-stretch="normal"
    units-per-em="2048"
    panose-1="0 0 8 0 0 0 0 0 0 0"
    ascent="1638"
    descent="-410"
    x-height="1059"
    cap-height="1464"
    bbox="-1501 -551 2550 1962"
    underline-thickness="102"
    underline-position="-102"
    unicode-range="U+000D-FB02"
  />
<missing-glyph horiz-adv-x="1110" 
 />
    <glyph glyph-name="fi" unicode="fi" horiz-adv-x="1196" 
d="M805 0v1059h266v-1059h-266zM219 0v819h-172v240h172v63q0 160 99 253t296 93h457v-241h-426q-86 0 -123 -35t-37 -105v-28h195v-240h-195v-819h-266z" />
    <glyph glyph-name="fl" unicode="fl" horiz-adv-x="1236" 
d="M1042 299q0 -78 76 -78h86v-221h-174q-124 0 -188 52t-64 184v991h-141q-152 0 -152 -125v-43h195v-240h-195v-819h-266v819h-172v240h172v76q0 153 95 243t286 90h442v-1169z" />
    <glyph glyph-name=".notdef" horiz-adv-x="1110" 
 />
    <glyph glyph-name=".null" 
 />
    <glyph glyph-name="nonmarkingreturn" horiz-adv-x="681" 
 />
    <glyph glyph-name="CR" unicode="&#xd;" horiz-adv-x="460" 
 />
    <glyph glyph-name="space" unicode=" " horiz-adv-x="460" 
 />
    <glyph glyph-name="exclam" unicode="!" horiz-adv-x="559" 
d="M281 328q73 0 121 -50t48 -121t-49 -123q-50 -52 -120 -52t-121 51t-51 123t50 122t122 50zM141 1462h277v-426l-72 -616h-135l-70 616v426z" />
    <glyph glyph-name="quotedbl" unicode="&#x22;" horiz-adv-x="817" 
d="M530 823l-77 639h278l-78 -639h-123zM164 823l-78 639h281l-80 -639h-123z" />
    <glyph glyph-name="numbersign" unicode="#" horiz-adv-x="1099" 
d="M442 582h195l31 264h-191zM72 412v170h186l37 264h-166v170h188l54 414h184l-55 -414h194l54 414h182l-53 -414h147v-170h-172l-35 -264h148v-170h-172l-52 -412h-184l55 412h-194l-53 -412h-185l56 412h-164z" />
    <glyph glyph-name="dollar" unicode="$" horiz-adv-x="1138" 
d="M813 393q0 74 -41 116t-143 81v-379q184 23 184 182zM354 1090q0 -64 35 -102t125 -70v323q-72 -8 -116 -47q-44 -40 -44 -104zM1063 418q0 -186 -115 -310t-319 -141v-174h-115v174q-199 15 -324 145t-122 369h249q0 -233 197 -266v416h-2l-4 2q-94 29 -158 59
q-163 76 -215 202q-31 75 -31 175q0 180 117 289t293 123v174h115v-176q180 -17 291 -135t110 -326h-250q-6 180 -151 217v-356l22 -7q93 -30 151 -58q176 -83 227 -208q34 -79 34 -188z" />
    <glyph glyph-name="percent" unicode="%" horiz-adv-x="1820" 
d="M1373 154q93 0 143 60q49 60 49 134t-49 136q-48 62 -140 62t-141 -60t-49 -136t47 -136t140 -60zM1382 727q168 0 272 -109q104 -108 105 -268q-1 -160 -111 -270t-277 -109q-167 0 -272 110q-105 111 -105 269t110 268t278 109zM441 883q93 0 143 60q49 60 49 134
t-49 136q-48 63 -140 63t-141 -60t-49 -137q0 -76 47 -136t140 -60zM827 1079q-1 -159 -111 -269t-277 -110t-273 110t-106 268t111 269q111 109 279 109t273 -108q104 -109 104 -269zM412 -49l807 1528h180l-805 -1528h-182z" />
    <glyph glyph-name="ampersand" unicode="&#x26;" horiz-adv-x="1359" 
d="M344 422q0 -92 65 -157t187 -65t207 62l-332 393q-127 -98 -127 -233zM569 1270q-55 0 -89 -32t-34 -98t97 -194q147 102 147 197q0 63 -33 95t-88 32zM1257 217h74v-217h-104q-172 0 -275 90q-150 -119 -378 -119t-361 119t-133 318q0 252 250 415q-137 163 -137 313
t106 245t274 95q169 0 265 -86q96 -87 96 -235q0 -197 -256 -371l248 -295q4 49 4 68v170h237v-168q0 -145 -61 -274q81 -68 151 -68z" />
    <glyph glyph-name="quotesingle" unicode="'" horiz-adv-x="450" 
d="M164 823l-78 639h281l-80 -639h-123z" />
    <glyph glyph-name="parenleft" unicode="(" horiz-adv-x="616" 
d="M84 551q0 244 66 500t188 446h223q-211 -420 -211 -932t209 -938h-221q-254 453 -254 924z" />
    <glyph glyph-name="parenright" unicode=")" horiz-adv-x="616" 
d="M268 559q0 508 -211 938h222q256 -453 256 -926q0 -239 -67 -497t-189 -447h-224q213 424 213 932z" />
    <glyph glyph-name="asterisk" unicode="*" horiz-adv-x="868" 
d="M500 1462v-262l248 88l49 -141l-252 -84l164 -213l-113 -94l-170 221l-164 -223l-115 92l177 217l-250 84l47 143l235 -90l-2 262h146z" />
    <glyph glyph-name="plus" unicode="+" horiz-adv-x="1116" 
d="M459 41v416h-393v202h393v416h198v-416h392v-202h-392v-416h-198z" />
    <glyph glyph-name="comma" unicode="," horiz-adv-x="532" 
d="M270 -10h-8q-74 0 -123 48t-49 123t50 124t125 49t123 -56t48 -161q0 -373 -307 -445v135q57 7 99 63t42 120z" />
    <glyph glyph-name="hyphen" unicode="-" horiz-adv-x="808" 
d="M117 444v228h575v-228h-575z" />
    <glyph glyph-name="period" unicode="." horiz-adv-x="520" 
d="M261 -10q-71 0 -122 51t-51 123t50 122t122 50t121 -50t49 -122t-49 -123t-120 -51z" />
    <glyph glyph-name="slash" unicode="/" horiz-adv-x="870" 
d="M55 -35l547 1532h215l-547 -1532h-215z" />
    <glyph glyph-name="zero" unicode="0" horiz-adv-x="1226" 
d="M381 715q0 -520 232 -520t233 520q0 520 -232 520t-233 -520zM612 -29q-233 1 -375 179q-143 178 -143 563t142 565t376 180q232 0 376 -180t144 -565t-143 -563q-144 -178 -377 -179z" />
    <glyph glyph-name="one" unicode="1" horiz-adv-x="839" 
d="M397 0v948h-356v203q178 4 283 64q104 60 131 215h211v-1430h-269z" />
    <glyph glyph-name="two" unicode="2" horiz-adv-x="1173" 
d="M92 0q0 229 116 375q62 78 128 135t176 139q215 144 265 253q24 52 24 112q1 100 -59 153t-164 54q-229 0 -230 -279h-258q-4 246 127 379t357 133t361 -112q134 -112 134 -308t-120 -328q-60 -67 -112 -109t-135 -97q-238 -172 -270 -269h653v-231h-993z" />
    <glyph glyph-name="three" unicode="3" horiz-adv-x="1212" 
d="M590 -29q-238 0 -375 134t-135 376h258q14 -289 260 -288q112 0 180 63t68 168q0 231 -309 231h-41v193h24q295 0 295 203q0 86 -60 136t-164 50t-166 -67t-65 -199h-258q0 239 132 363t356 124t354 -103q129 -103 129 -278q0 -106 -52 -190t-149 -119q113 -27 183 -109
t69 -219q0 -215 -148 -342t-386 -127z" />
    <glyph glyph-name="four" unicode="4" horiz-adv-x="1177" 
d="M670 528v535h-6l-371 -535h377zM670 0v309h-627v228l621 893h260v-902h182v-219h-182v-309h-254z" />
    <glyph glyph-name="five" unicode="5" horiz-adv-x="1155" 
d="M1077 480q0 -226 -133 -368q-134 -142 -366 -141q-232 0 -365 117t-133 332h256q2 -100 62 -164t165 -63q248 0 248 288q0 125 -61 196q-60 71 -190 71t-208 -113h-239l106 795h782v-232h-571l-43 -303q27 27 89 51t136 25q219 0 342 -132q123 -133 123 -359z" />
    <glyph glyph-name="six" unicode="6" horiz-adv-x="1196" 
d="M389 464q-1 -122 59 -196t163 -75q103 0 161 75q57 76 57 199t-54 197t-163 74t-166 -76t-57 -198zM612 -29q-339 0 -455 302q-61 161 -62 370t26 340q98 475 504 475t444 -391h-256q-12 78 -60 128t-135 50q-112 1 -180 -109t-71 -315v-24l8 14q35 61 119 101t180 40
q214 0 324 -133t110 -353t-136 -358t-360 -137z" />
    <glyph glyph-name="seven" unicode="7" horiz-adv-x="1064" 
d="M43 1182v248h979v-232q-467 -492 -477 -1198h-285q35 721 463 1182h-680z" />
    <glyph glyph-name="eight" unicode="8" horiz-adv-x="1189" 
d="M594 178q106 0 173 67t67 177t-67 176q-67 68 -173 68t-173 -68t-67 -178t67 -176t173 -66zM595 858q91 0 147 56t56 142t-54 140q-56 55 -149 55t-149 -56t-55 -140q0 -84 56 -141q57 -56 148 -56zM590 -29q-227 0 -366 118q-138 118 -138 314q0 131 61 225t160 144
q-74 41 -119 121t-45 182q0 171 123 277t328 106t329 -105t124 -278q-1 -100 -45 -180t-117 -123q100 -45 159 -139t60 -230q0 -193 -144 -313t-370 -119z" />
    <glyph glyph-name="nine" unicode="9" horiz-adv-x="1198" 
d="M809 965q0 125 -59 199q-58 74 -162 73q-104 0 -162 -75q-58 -74 -59 -198t55 -198t164 -74t166 74q57 74 57 199zM584 -29q-422 0 -461 394h258q20 -188 197 -189q246 0 253 418v27l-14 -21q-80 -123 -296 -123q-217 0 -325 132t-108 353q0 220 136 358t360 138
q345 0 457 -295q63 -164 63 -381t-24 -347q-56 -304 -239 -405q-105 -59 -257 -59z" />
    <glyph glyph-name="colon" unicode=":" horiz-adv-x="567" 
d="M286 -10q-71 0 -122 51t-51 123t50 122t122 50t121 -50t49 -122t-49 -123t-120 -51zM455 872q0 -72 -49 -123t-120 -51t-122 52t-51 122q0 72 50 122t122 50t121 -50t49 -122z" />
    <glyph glyph-name="semicolon" unicode=";" horiz-adv-x="571" 
d="M285 -4q-74 0 -123 48t-49 123t50 124t124 49t123 -54t49 -149q0 -389 -307 -461v138q59 8 101 63t40 119h-8zM284 1014q68 0 118 -51t50 -120t-49 -121q-50 -52 -119 -52t-121 50t-52 121t52 122t121 51z" />
    <glyph glyph-name="less" unicode="&#x3c;" horiz-adv-x="1153" 
d="M1051 -8l-990 422v223l990 424v-217l-725 -318l725 -317v-217z" />
    <glyph glyph-name="equal" unicode="=" horiz-adv-x="1226" 
d="M123 240v200h983v-200h-983zM123 672v202h983v-202h-983z" />
    <glyph glyph-name="greater" unicode="&#x3e;" horiz-adv-x="1150" 
d="M100 -10v217l723 317l-723 318v217l990 -424v-221z" />
    <glyph glyph-name="question" unicode="?" horiz-adv-x="1114" 
d="M547 -23q-66 1 -111 47t-45 110t46 110q45 46 109 45q64 0 110 -45t46 -110t-44 -111t-111 -46zM674 424h-256l-2 51q2 129 45 206t129 155l26 24q11 11 39 32t34 30q7 10 19 23q11 13 15 21q5 8 17 32q12 23 12 71q0 84 -52 130t-152 46q-102 0 -155 -55t-55 -143h-279
q5 199 139 325t368 125q234 0 358 -111q123 -111 123 -262t-75 -248q-58 -75 -112 -121q-53 -46 -59 -53l-31 -30q-96 -90 -96 -181v-67z" />
    <glyph glyph-name="at" unicode="@" horiz-adv-x="1787" 
d="M727 517q0 -89 45 -143t122 -55q77 1 123 53t46 142t-46 143t-122 53t-122 -52t-46 -141zM913 -295q-377 0 -604 215t-227 623q0 250 121 437t306 277t400 91q365 0 577 -192t212 -511q0 -238 -113 -376t-264 -138h-258v96q-57 -117 -221 -117t-262 107q-98 105 -98 293
t102 298t262 110q74 0 132 -28t83 -75v80h242v-565h12q53 0 97 79t44 236q0 209 -145 339t-397 130t-416 -156t-164 -431t154 -437t419 -162h557v-223h-551z" />
    <glyph glyph-name="A" unicode="A" horiz-adv-x="1372" 
d="M516 633h332l-162 495h-4zM1057 0l-119 360h-512l-121 -360h-297l529 1464h303l522 -1464h-305z" />
    <glyph glyph-name="B" unicode="B" horiz-adv-x="1363" 
d="M455 236h268q258 0 258 202t-266 203h-260v-405zM455 883h276q215 0 215 184q0 162 -233 162h-258v-346zM162 0v1464h590q227 0 352 -97t129 -273q0 -199 -148 -285v-2q190 -96 191 -367q0 -211 -147.5 -325.5t-366.5 -114.5h-600z" />
    <glyph glyph-name="C" unicode="C" horiz-adv-x="1441" 
d="M764 -35q-319 0 -500.5 204t-181.5 548t188.5 562t491.5 218q427 1 567 -325q39 -90 49 -195h-284q-27 111 -109 179.5t-218 68.5t-227 -75q-163 -134 -163 -423q0 -203 92 -346t299 -143q274 0 328 249h284q-29 -225 -199.5 -373.5t-416.5 -148.5z" />
    <glyph glyph-name="D" unicode="D" horiz-adv-x="1495" 
d="M455 274h170q498 0 497 465q0 217 -126 334t-373 117h-168v-916zM162 0v1464h514q324 0 531.5 -196.5t207.5 -527.5t-207 -535.5t-536 -204.5h-510z" />
    <glyph glyph-name="E" unicode="E" horiz-adv-x="1298" 
d="M162 0v1464h1028v-250h-735v-346h673v-247h-673v-371h749v-250h-1042z" />
    <glyph glyph-name="F" unicode="F" horiz-adv-x="1202" 
d="M162 0v1464h973v-282h-680v-367h587v-266h-587v-549h-293z" />
    <glyph glyph-name="G" unicode="G" horiz-adv-x="1525" 
d="M786 -35q-330 0 -518 212t-188 547t193.5 554t519.5 219q270 0 439 -135t206 -377h-285q-78 236 -365 236q-201 0 -306 -138.5t-105 -353.5t106.5 -352t302.5 -137q303 0 363 256h-352v264h659q2 -20 2 -60q2 -330 -170 -532.5t-502 -202.5z" />
    <glyph glyph-name="H" unicode="H" horiz-adv-x="1513" 
d="M162 0v1464h293v-585h602v585h295v-1464h-295v594h-602v-594h-293z" />
    <glyph glyph-name="I" unicode="I" horiz-adv-x="616" 
d="M162 0v1464h293v-1464h-293z" />
    <glyph glyph-name="J" unicode="J" horiz-adv-x="1105" 
d="M307 477q5 -246 171 -246q86 0 125.5 42t49 91.5t9.5 122.5v977h294v-977q0 -197 -89 -347q-48 -81 -144 -128t-231 -47q-231 0 -342 134t-111 378h268z" />
    <glyph glyph-name="K" unicode="K" horiz-adv-x="1406" 
d="M162 0v1464h293v-633l563 633h366l-546 -579l600 -885h-371l-444 659l-168 -184v-475h-293z" />
    <glyph glyph-name="L" unicode="L" horiz-adv-x="1138" 
d="M162 0v1464h293v-1196h649v-268h-942z" />
    <glyph glyph-name="M" unicode="M" horiz-adv-x="1769" 
d="M162 0v1464h274l461 -649l434 649h277v-1464h-277v999l-334 -516h-225l-336 508v-991h-274z" />
    <glyph glyph-name="N" unicode="N" horiz-adv-x="1501" 
d="M162 0v1464h262l641 -952v952h274v-1464h-270l-635 946v-946h-272z" />
    <glyph glyph-name="O" unicode="O" horiz-adv-x="1615" 
d="M809 242q205 0 320.5 140t115.5 347t-115.5 349.5t-321.5 142.5t-319.5 -141.5t-113.5 -350.5t114.5 -348t319.5 -139zM809 -35q-330 0 -530.5 218t-200.5 546t200.5 548t530.5 220t529.5 -220t199.5 -548t-199.5 -546t-529.5 -218z" />
    <glyph glyph-name="P" unicode="P" horiz-adv-x="1298" 
d="M455 817h254q258 0 258 205q0 193 -262 192h-250v-397zM162 0v1462h581q264 0 388 -121.5t124 -314.5t-129 -322t-407 -129h-264v-575h-293z" />
    <glyph glyph-name="Q" unicode="Q" horiz-adv-x="1615" 
d="M809 242q205 0 320.5 140t115.5 347t-115.5 349.5t-321.5 142.5t-319.5 -141.5t-113.5 -350.5t114.5 -348t319.5 -139zM1538 725q0 -291 -162 -499t-438 -251q8 -72 44 -98.5t114 -26.5h186v-223h-262q-166 0 -255 83t-103 267q-268 49 -426 256t-158 492
q0 332 200.5 552t530.5 220t529.5 -220t199.5 -552z" />
    <glyph glyph-name="R" unicode="R" horiz-adv-x="1370" 
d="M455 1221v-373h260q240 0 239 192q0 180 -237 181h-262zM455 602v-602h-293v1462h567q258 0 389 -112.5t131 -309.5q2 -160 -85 -268t-220 -149l385 -623h-340l-358 602h-176z" />
    <glyph glyph-name="S" unicode="S" horiz-adv-x="1290" 
d="M109 1072q0 202 149.5 313.5t377 111.5t385 -115.5t159.5 -353.5h-285q-12 231 -274 232q-96 0 -161 -39t-65 -122t64.5 -125t225.5 -94t216 -72q161 -59 225 -134q86 -100 86 -246q0 -207 -149.5 -335t-410.5 -128t-421.5 126t-156.5 388h284q-4 -270 295 -270
q274 0 275 180q0 94 -68.5 136t-277.5 106q-113 31 -188 61q-76 30 -146 80q-140 98 -139 300z" />
    <glyph glyph-name="T" unicode="T" horiz-adv-x="1191" 
d="M449 0v1214h-420v250h1134v-250h-420v-1214h-294z" />
    <glyph glyph-name="U" unicode="U" horiz-adv-x="1470" 
d="M733.5 -35q-280.5 0 -434.5 160t-154 471v868h295v-868q0 -362 293 -363q297 0 297 363v868h293v-868q0 -309 -154.5 -470t-435 -161z" />
    <glyph glyph-name="V" unicode="V" horiz-adv-x="1308" 
d="M485 0l-454 1462h303l203 -667q84 -285 122 -469q27 123 125 471l195 665h303l-465 -1462h-332z" />
    <glyph glyph-name="W" unicode="W" horiz-adv-x="1939" 
d="M406 0l-369 1464h299l164 -766q41 -188 63 -350q18 125 70 350l180 766h326l172 -772q45 -205 67 -354q23 162 68 354l170 772h291l-375 -1464h-299l-150 625q-76 319 -110 499q-35 -178 -113 -503l-147 -621h-307z" />
    <glyph glyph-name="X" unicode="X" horiz-adv-x="1304" 
d="M1311 0h-353l-313 526l-317 -526h-334l489 762l-452 700h344l282 -489l291 489h324l-449 -700z" />
    <glyph glyph-name="Y" unicode="Y" horiz-adv-x="1331" 
d="M516 0v584l-514 878h332l340 -602l330 602h327l-520 -884v-578h-295z" />
    <glyph glyph-name="Z" unicode="Z" horiz-adv-x="1306" 
d="M80 0v252l481 614q164 213 262 320h-731v276h1100v-252l-502 -637q-127 -176 -241 -303h792v-270h-1161z" />
    <glyph glyph-name="bracketleft" unicode="[" horiz-adv-x="720" 
d="M158 -373v1870h501v-211h-235v-1448h235v-211h-501z" />
    <glyph glyph-name="backslash" unicode="\" horiz-adv-x="870" 
d="M602 -35l-547 1532h215l545 -1532h-213z" />
    <glyph glyph-name="bracketright" unicode="]" horiz-adv-x="720" 
d="M61 -373v211h236v1448h-236v211h502v-1870h-502z" />
    <glyph glyph-name="asciicircum" unicode="^" horiz-adv-x="1067" 
d="M68 627l340 803h251l340 -803h-221l-246 596l-243 -596h-221z" />
    <glyph glyph-name="underscore" unicode="_" horiz-adv-x="972" 
d="M0 -256v102h973v-102h-973z" />
    <glyph glyph-name="grave" unicode="`" horiz-adv-x="473" 
d="M453 1178h-170l-263 290h279z" />
    <glyph glyph-name="a" unicode="a" horiz-adv-x="1122" 
d="M469 184q104 0 174 76t70 182v50q-20 -14 -64 -23l-153 -33q-80 -18 -120 -49t-40 -86q0 -117 133 -117zM397 -29q-143 0 -239.5 83t-96.5 229q0 276 363 342l176 34q66 10 88.5 29t22.5 62q0 106 -176 106t-177 -115h-260q0 166 126 256t323 90t314.5 -90t117.5 -313
v-401q0 -66 61 -66h25v-217h-203q-131 0 -131 129v10q-101 -168 -334 -168z" />
    <glyph glyph-name="b" unicode="b" horiz-adv-x="1193" 
d="M620.5 217q108.5 0 171 85t62.5 227t-63.5 226.5t-172 84.5t-172 -85t-63.5 -225.5t64.5 -226.5t173 -86zM682.5 1087q188.5 0 313 -151.5t124.5 -402t-131 -406.5t-318 -156t-294 142v-113h-254v1468h266v-507q105 126 293.5 126z" />
    <glyph glyph-name="c" unicode="c" horiz-adv-x="1107" 
d="M555.5 -29q-220.5 0 -352 151.5t-131.5 399.5t136 406.5t374 158.5q197 0 321.5 -104t140.5 -311h-260q-35 168 -209 168q-119 0 -178 -90.5t-59 -225.5t56.5 -220t176.5 -85q182 0 213 162h260q-20 -199 -144 -304.5t-344.5 -105.5z" />
    <glyph glyph-name="d" unicode="d" horiz-adv-x="1191" 
d="M809 530v5q0 139 -61.5 222t-169.5 83t-174 -85t-66 -227t64 -226t174 -84.5t171.5 84.5t61.5 228zM803 1468h266v-1468h-254v113q-102 -141 -278 -142q-207 0 -336 149.5t-129 403.5t130 408.5t314 154.5t287 -124v505z" />
    <glyph glyph-name="e" unicode="e" horiz-adv-x="1122" 
d="M573 848q-186 0 -225 -193h447q-36 193 -222 193zM582 -29q-233 0 -371.5 142.5t-138.5 405.5t140 415.5t364.5 152.5t355.5 -145t131 -399q0 -37 -4 -99h-719q20 -238 238 -237q154 0 194 123h258q-23 -160 -148.5 -259.5t-299.5 -99.5z" />
    <glyph glyph-name="f" unicode="f" horiz-adv-x="716" 
d="M219 0v819h-172v240h172v88q0 322 324 321h231v-241h-170q-70 0 -94.5 -25.5t-24.5 -87.5v-55h195v-240h-195v-819h-266z" />
    <glyph glyph-name="g" unicode="g" horiz-adv-x="1193" 
d="M579.5 227q112.5 0 173 83t60.5 225t-63.5 224.5t-173.5 82.5t-174 -82t-64 -224t64.5 -225.5t177 -83.5zM819 1059h252v-1075q0 -223 -103.5 -325.5t-316.5 -102.5h-432v227h361q123 0 174 47t51 164v108q-109 -119 -273 -118q-208 0 -334 148q-126 146 -126 398
t130 404.5t319 152.5t298 -141v113z" />
    <glyph glyph-name="h" unicode="h" horiz-adv-x="1179" 
d="M123 0v1468h264l2 -507q93 127 277 127t291.5 -112t107.5 -312v-664h-266l2 592q0 111 -54.5 174t-150.5 63q-123 0 -176 -110q-31 -63 -31 -158v-561h-266z" />
    <glyph glyph-name="i" unicode="i" horiz-adv-x="514" 
d="M123 0v1059h266v-1059h-266zM262.5 1182q-69.5 0 -118 47t-48.5 116.5t48.5 117.5t118 48t116.5 -48t47 -117.5t-47 -116.5t-116.5 -47z" />
    <glyph glyph-name="j" unicode="j" horiz-adv-x="530" 
d="M-135 -442v256h172q102 0 102 98v1147h267v-1196q0 -164 -73 -235t-263 -70h-205zM275 1182q-69 0 -117 48t-49 117q0 69 49 117q50 48 118 47q68 0 115 -48q47 -49 47 -117t-47 -116t-116 -48z" />
    <glyph glyph-name="k" unicode="k" horiz-adv-x="1118" 
d="M389 0h-266v1468h266v-768l371 359h334l-412 -404l461 -655h-332l-319 467l-103 -100v-367z" />
    <glyph glyph-name="l" unicode="l" horiz-adv-x="577" 
d="M371 0q-123 0 -187.5 52t-64.5 184v1232h264v-1169q0 -43 18.5 -60.5t57.5 -17.5h86v-221h-174z" />
    <glyph glyph-name="m" unicode="m" horiz-adv-x="1765" 
d="M123 0v1059h254v-119q39 68 112.5 107.5t159.5 39.5q203 0 293 -155q111 156 328 155q170 0 275.5 -114.5t105.5 -313.5v-659h-267l2 602q0 109 -48 168t-136 59t-135 -65.5t-47 -169.5v-594h-266l2 602q0 109 -48.5 168t-135.5 59t-135 -65.5t-48 -165.5v-598h-266z" />
    <glyph glyph-name="n" unicode="n" horiz-adv-x="1179" 
d="M123 0v1059h254v-117q41 68 123 106.5t172 38.5q182 0 287.5 -113.5t105.5 -318.5v-655h-266l2 592q0 111 -53.5 174t-149.5 63t-152.5 -72.5t-56.5 -189.5v-567h-266z" />
    <glyph glyph-name="o" unicode="o" horiz-adv-x="1165" 
d="M583 217q114 0 180 84t66 228t-66.5 227.5t-179 83.5t-180 -83t-67.5 -228.5t66.5 -228.5t180.5 -83zM582 -29q-231 0 -371.5 156t-140.5 397.5t142 402t372.5 160.5t371 -155.5t140.5 -397.5t-141.5 -402.5t-372.5 -160.5z" />
    <glyph glyph-name="p" unicode="p" horiz-adv-x="1191" 
d="M617.5 217q109.5 0 173 85t63.5 226t-63.5 226.5t-173 85.5t-172 -85t-62.5 -226.5t62.5 -226.5t172 -85zM672.5 1087q188.5 0 318 -151.5t129.5 -401t-134 -406.5t-312 -157t-285 123v-536h-266v1501h254v-115q107 143 295.5 143z" />
    <glyph glyph-name="q" unicode="q" horiz-adv-x="1191" 
d="M573.5 217q108.5 0 173 86t64.5 227v2q0 139 -63.5 223.5t-173 84.5t-173 -85t-63.5 -226.5t63.5 -226.5t172 -85zM1159 -217h92v-225h-192q-256 0 -256 249v285q-102 -121 -268 -121q-203 0 -333 150.5t-130 404.5t129 407.5t318 153.5t296 -139v111h254v-1180
q0 -96 90 -96z" />
    <glyph glyph-name="r" unicode="r" horiz-adv-x="774" 
d="M123 0v1059h254v-125q76 139 276 139h99l-2 -254h-115q-119 0 -182.5 -73.5t-63.5 -198.5v-547h-266z" />
    <glyph glyph-name="s" unicode="s" horiz-adv-x="1024" 
d="M502.5 -29q-193.5 0 -317.5 84t-124 277h261q8 -139 186 -139q98 0 139 22.5t41 68.5t-30.5 64.5t-131.5 52.5l-172 56q-101 29 -184.5 93.5t-82.5 192.5q1 127 65 205q115 138 360 139q182 0 299 -80.5t119 -258.5h-260q-2 57 -46 86.5t-118 29.5q-145 0 -146 -86
q0 -31 23 -51t82 -41l225 -74q131 -45 197.5 -110.5t66.5 -186.5q0 -176 -129 -260t-322.5 -84z" />
    <glyph glyph-name="t" unicode="t" horiz-adv-x="798" 
d="M553 0q-162 0 -246 57.5t-84 223.5v538h-188v240h188v299h266v-299h246v-240h-246v-479q0 -57 24 -80.5t87 -23.5h135v-236h-182z" />
    <glyph glyph-name="u" unicode="u" horiz-adv-x="1163" 
d="M502 -29q-186 0 -287.5 115t-101.5 320v653h266l-2 -598q0 -125 49 -179.5t145 -54.5q203 0 203 271v561h266v-1059h-254v117q-31 -68 -109.5 -107t-174.5 -39z" />
    <glyph glyph-name="v" unicode="v" horiz-adv-x="1046" 
d="M381 0l-365 1059h283l143 -449l93 -338h4l90 338l125 449h272l-350 -1059h-295z" />
    <glyph glyph-name="w" unicode="w" horiz-adv-x="1550" 
d="M315 0l-295 1059h281l166 -766l178 766h262l185 -764l161 764h273l-293 -1059h-287l-84 336l-84 366h-4l-86 -368l-86 -334h-287z" />
    <glyph glyph-name="x" unicode="x" horiz-adv-x="1044" 
d="M6 0l363 559l-332 500h305l188 -305l179 305h297l-334 -506l372 -553h-307l-217 354l-215 -354h-299z" />
    <glyph glyph-name="y" unicode="y" horiz-adv-x="1054" 
d="M307 -217q131 0 129 106q0 37 -49 170l-371 1000h291l127 -389l131 -441l105 441l100 389h270l-389 -1256q-41 -133 -115.5 -189t-209.5 -56h-226v225h207z" />
    <glyph glyph-name="z" unicode="z" horiz-adv-x="1030" 
d="M70 0v201l526 635h-514v223h844v-201l-525 -637h576v-221h-907z" />
    <glyph glyph-name="braceleft" unicode="{" horiz-adv-x="776" 
d="M469 -373q-84 0 -163 74t-79 199v393q0 86 -58 133t-126 55v164q63 2 124 53q60 51 60 148v381q0 125 79 197t163 73h244v-211h-109q-111 0 -110 -156v-313q0 -123 -60 -181t-137 -71q86 -17 141 -81t56 -160v-328q0 -158 110 -158h109v-211h-244z" />
    <glyph glyph-name="bar" unicode="|" horiz-adv-x="514" 
d="M156 -438v2048h202v-2048h-202z" />
    <glyph glyph-name="braceright" unicode="}" horiz-adv-x="776" 
d="M307 1497q84 0 163 -74t79 -198v-394q0 -86 58 -133t126 -55v-164q-63 -2 -123 -53t-61 -147v-381q0 -125 -79 -198t-163 -73h-244v211h109q111 0 111 156v313q0 123 60 181t136 71q-86 17 -141 81t-55 161v327q0 158 -111 158h-109v211h244z" />
    <glyph glyph-name="asciitilde" unicode="~" horiz-adv-x="1110" 
d="M767 371q-81 -1 -203 69t-210 70q-110 -1 -176 -148l-76 173q86 180 242 182q84 0 226 -70q142 -69 190 -69t88 36q39 36 84 105l76 -172q-52 -84 -106 -130t-135 -46z" />
    <glyph glyph-name="uni00A0" unicode="&#xa0;" horiz-adv-x="460" 
 />
    <glyph glyph-name="exclamdown" unicode="&#xa1;" horiz-adv-x="532" 
d="M403 -389h-276v426l72 616h135l69 -616v-426zM94 917q0 71 50 123t120 52t121 -52t51 -122q0 -72 -50 -122t-122 -50t-121 50t-49 121z" />
    <glyph glyph-name="cent" unicode="&#xa2;" horiz-adv-x="1159" 
d="M348 537q0 -277 199 -324v631q-103 -23 -151 -108t-48 -199zM547 -231v202q-209 12 -337 165q-128 154 -128 386t122 388t343 175v175h110v-175q170 -1 296 -111t134 -290h-262q-10 68 -55 112t-113 50v-633q72 8 118 59t54 129h263q-16 -188 -134 -301t-301 -129v-202
h-110z" />
    <glyph glyph-name="sterling" unicode="&#xa3;" horiz-adv-x="1345" 
d="M326 174q53 0 80 43q-45 33 -89 33t-45 -37q1 -39 54 -39zM1055 236h186v-236h-258q-223 0 -397 96q-100 -127 -254 -127q-111 1 -191 61t-80 176t75 180t194 65q57 0 110 -17v4q0 78 -43 197h-202v170h141q-45 135 -45 233q0 186 128 308t347 122t345 -122t126 -349
h-256q-4 244 -227 244q-94 0 -146 -51t-51 -135q0 -84 59 -250h293v-170h-235q46 -162 8 -328q158 -71 373 -71z" />
    <glyph glyph-name="currency" unicode="&#xa4;" horiz-adv-x="1286" 
d="M644 430q126 0 197 85t71 201t-72 200q-70 84 -195 83q-125 0 -200 -84q-75 -83 -75 -201t74 -201t200 -83zM1149 720q0 -192 -96 -306l112 -115l-104 -104l-117 118q-113 -106 -301 -106t-303 104l-115 -118l-106 106l117 119q-102 119 -103 295q4 201 103 299l-117 118
l108 109l117 -115q111 98 297 98t293 -96l119 117l116 -115l-116 -114q96 -102 96 -294z" />
    <glyph glyph-name="yen" unicode="&#xa5;" horiz-adv-x="1380" 
d="M541 0v406h-318v178h312l-123 225h-265v178h170l-260 475h334l314 -622l292 622h328l-260 -473h164v-178h-260l-127 -227h313v-178h-319v-406h-295z" />
    <glyph glyph-name="brokenbar" unicode="&#xa6;" horiz-adv-x="501" 
d="M150 -182v512h202v-512h-202zM150 842v512h202v-512h-202z" />
    <glyph glyph-name="section" unicode="&#xa7;" horiz-adv-x="1089" 
d="M352 627q0 -39 26 -73t93 -81l207 -141q59 51 59 121q1 41 -25 73t-94 80q-195 133 -206 142q-60 -47 -60 -121zM561 -160q156 0 152 103q-2 47 -44 82q-43 35 -229 153t-268 203q-82 86 -82 207q0 178 148 282q-125 104 -125 255t114 246q115 95 309 95t312 -100
q119 -100 119 -295h-244q0 76 -49 122t-144 46q-154 0 -153 -102q2 -45 44 -80t228 -153q187 -118 269 -204t81 -206q0 -181 -147 -285q125 -104 125 -256t-115 -246t-308 -94t-312 101t-119 294h244q0 -76 50 -122t144 -46z" />
    <glyph glyph-name="dieresis" unicode="&#xa8;" horiz-adv-x="710" 
d="M555 1208q-57 0 -96 39t-39 96.5t39 96.5t96 39t97 -39t40 -96.5t-40 -96.5t-97 -39zM157.5 1208q-57.5 0 -97.5 39t-40 96.5t40 96.5t97.5 39t96.5 -39t39 -96.5t-39 -96.5t-96.5 -39z" />
    <glyph glyph-name="copyright" unicode="&#xa9;" horiz-adv-x="1732" 
d="M1087 874q-37 152 -225 152q-96 0 -160 -80t-63 -206q0 -126 66 -210t164 -84t152 41t66 113h173q-20 -150 -126 -236t-253 -85q-197 0 -316 129q-119 130 -119 328t118 327t313 129q152 0 256 -83t120 -235h-166zM866 147q248 0 417 166t169 418t-171 419t-416 167
t-415 -167t-169 -419t169 -418t416 -166zM866 -35q-322 0 -554 214t-232 552t231 552t555 214t555 -214t231 -552t-232 -552t-554 -214z" />
    <glyph glyph-name="ordfeminine" unicode="&#xaa;" horiz-adv-x="827" 
d="M354 922q74 0 114 44t40 103v27q-12 -10 -41 -15l-100 -16q-88 -16 -88 -78q0 -29 20 -47t55 -18zM307 774q-92 0 -159 51q-66 51 -66 145q1 183 225 218l123 18q72 10 72 47q0 51 -110 51t-109 -63h-177q2 109 82 165t203 56q291 0 291 -252v-237q0 -23 9 -33t36 -10h8
v-142h-135q-84 0 -84 70h-2q-72 -84 -207 -84z" />
    <glyph glyph-name="guillemotleft" unicode="&#xab;" horiz-adv-x="851" 
d="M729 172l-301 258v254l301 254v-227l-174 -154l174 -156v-229zM395 172l-301 258v254l301 254v-227l-174 -154l174 -156v-229z" />
    <glyph glyph-name="logicalnot" unicode="&#xac;" horiz-adv-x="1218" 
d="M885 201v420h-781v200h981v-620h-200z" />
    <glyph glyph-name="uni00AD" unicode="&#xad;" horiz-adv-x="808" 
d="M117 444v228h575v-228h-575z" />
    <glyph glyph-name="registered" unicode="&#xae;" horiz-adv-x="1732" 
d="M729 803h145q82 0 130 23q47 24 47 96q0 111 -174 110h-148v-229zM561 305v858h324q336 0 336 -243q0 -113 -68 -170t-158 -70l230 -375h-181l-213 369h-102v-369h-168zM864 1321q-244 0 -412 -168t-167 -422q-1 -254 167 -421t413 -167t414 168t169 421t-170 421
t-414 168zM866 -35q-324 0 -555 215t-231 553q0 225 110 402q111 176 289 269t387 93t387 -93t289 -269t111 -402q1 -338 -231 -553t-556 -215z" />
    <glyph glyph-name="macron" unicode="&#xaf;" horiz-adv-x="755" 
d="M20 1266v143h715v-143h-715z" />
    <glyph glyph-name="degree" unicode="&#xb0;" horiz-adv-x="729" 
d="M365 983q69 0 113 48t44 124t-45 124t-113 48t-113 -48q-46 -48 -46 -124t46 -124t114 -48zM653 1155q1 -127 -83 -214t-206 -87t-205 87t-83 214t83 215t205 88t206 -88t83 -215z" />
    <glyph glyph-name="plusminus" unicode="&#xb1;" horiz-adv-x="1202" 
d="M111 0v201h983v-201h-983zM502 270v283h-391v201h391v282h198v-282h394v-201h-394v-283h-198z" />
    <glyph glyph-name="uni00B2" unicode="&#xb2;" horiz-adv-x="907" 
d="M100 557q0 137 58 212t204 175t183 136q37 38 37 87q0 94 -119 95q-78 0 -112 -37t-34 -111h-215q2 162 96 254t258 92q162 0 252 -75t91 -195t-53 -180q-54 -61 -236 -176q-6 -4 -22 -16t-26 -17q-9 -6 -47 -32t-38 -42h411v-170h-688z" />
    <glyph glyph-name="uni00B3" unicode="&#xb3;" horiz-adv-x="870" 
d="M431 541q-159 0 -255 84t-94 243h190q0 -70 42 -108t118 -39q154 0 154 116t-154 115h-61v140h65q127 0 127 95t-133 95t-133 -131h-193q0 143 88 226t242 83t238 -68t84 -173q0 -68 -30 -117t-77 -68q57 -16 99 -72t40 -135q0 -131 -99 -209t-258 -77z" />
    <glyph glyph-name="acute" unicode="&#xb4;" horiz-adv-x="473" 
d="M20 1178l152 290h281l-265 -290h-168z" />
    <glyph glyph-name="uni00B5" unicode="&#xb5;" horiz-adv-x="1236" 
d="M156 -373v1432h266l-2 -606q0 -231 188 -232q209 0 209 275v563h266v-1059h-254v117q-31 -66 -101 -106t-164 -40q-93 0 -144 47v-391h-264z" />
    <glyph glyph-name="paragraph" unicode="&#xb6;" horiz-adv-x="1333" 
d="M231 -365v191h93q106 0 143 41t37 139v692q-211 0 -327 100t-116 284t127 282t336 98h729v-162h-153v-1630h-199v1630h-201v-1337q0 -180 -76 -254t-292 -74h-101z" />
    <glyph glyph-name="periodcentered" unicode="&#xb7;" horiz-adv-x="536" 
d="M270 436q-68 0 -120 51t-52 122t52 122t120 51t119 -51t51 -120t-51 -122t-119 -53z" />
    <glyph glyph-name="cedilla" unicode="&#xb8;" horiz-adv-x="516" 
d="M309 -252q0 61 -78 62q-43 0 -84 -11l-47 51l119 150h117l-70 -88l4 -4q33 4 62 4q72 0 124 -38t52 -131t-75 -143.5t-179 -50.5q-168 4 -262 80l71 101q63 -51 154.5 -51.5t91.5 69.5z" />
    <glyph glyph-name="uni00B9" unicode="&#xb9;" horiz-adv-x="612" 
d="M283 559v569q-162 -8 -224 -10v158q119 -2 184 37t81 133h176v-887h-217z" />
    <glyph glyph-name="ordmasculine" unicode="&#xba;" horiz-adv-x="813" 
d="M406 944q64 0 104 46q39 46 39 126t-39 127q-40 47 -104 47t-104 -47t-40 -127t40 -126t104 -46zM741 1120q0 -146 -94 -248q-95 -102 -243 -102t-240 97t-92 245t93 250q93 100 241 100t242 -98q93 -98 93 -244z" />
    <glyph glyph-name="guillemotright" unicode="&#xbb;" horiz-adv-x="858" 
d="M465 172v229l174 156l-174 154v227l299 -254v-254zM125 172v229l174 156l-174 154v227l299 -254v-254z" />
    <glyph glyph-name="onequarter" unicode="&#xbc;" horiz-adv-x="1689" 
d="M1300 340v272h-4l-215 -272h219zM1300 2v158h-438v182l434 543h215v-545h127v-180h-127v-158h-211zM287 559v569q-162 -8 -224 -10v158q119 -2 184 37t81 133h176v-887h-217zM279 -47l811 1524h182l-807 -1524h-186z" />
    <glyph glyph-name="onehalf" unicode="&#xbd;" horiz-adv-x="1804" 
d="M1026 0q0 139 58 214q58 74 204 174t182 136t37 86q0 94 -118 95q-143 0 -144 -146h-217q0 160 95 253t280 93q141 -1 231 -73t90 -192t-54 -183t-170 -137t-158 -105t-39 -45h411v-170h-688zM283 559v569q-162 -8 -224 -10v158q119 -2 184 37t81 133h176v-887h-217z
M332 -45l801 1524h190l-799 -1524h-192z" />
    <glyph glyph-name="threequarters" unicode="&#xbe;" horiz-adv-x="1828" 
d="M1440 340v272h-4l-215 -272h219zM1440 2v158h-439v182l435 543h215v-545h127v-180h-127v-158h-211zM778 827q0 -131 -99 -209t-258 -77q-159 0 -255 84t-94 243h190q0 -70 42 -108t118 -39q154 0 153 115q0 117 -153 116h-62v140h66q127 0 127 95t-133 95t-133 -131h-193
q0 143 88 226t242 83t238 -68t83 -173q1 -68 -29 -117t-77 -68q57 -16 98 -72t41 -135zM479 -47l811 1524h183l-807 -1524h-187z" />
    <glyph glyph-name="questiondown" unicode="&#xbf;" horiz-adv-x="1101" 
d="M434 666h256l2 -52q-2 -130 -45 -206t-129 -154l-26 -25q-7 -7 -25 -21q-19 -14 -33 -26q-14 -14 -18 -19t-16 -19t-15 -21l-11 -22q-18 -33 -18 -81q0 -84 52 -130t152 -46q102 0 155 56t55 143h279q-5 -199 -139 -325t-368 -126t-358 111q-123 111 -123 262t75 249
q58 75 112 121q53 46 59 52l31 31q96 90 96 181v67zM561 1112q66 0 111 -46t45 -110t-46 -110q-45 -45 -109 -45t-110 45q-46 46 -46 110t44 110t111 46z" />
    <glyph glyph-name="Agrave" unicode="&#xc0;" horiz-adv-x="1372" 
d="M516 633h332l-162 495h-4zM1057 0l-119 360h-512l-121 -360h-297l529 1464h303l522 -1464h-305zM846 1581h-199l-295 287h299z" />
    <glyph glyph-name="Aacute" unicode="&#xc1;" horiz-adv-x="1372" 
d="M516 633h332l-162 495h-4zM1057 0l-119 360h-512l-121 -360h-297l529 1464h303l522 -1464h-305zM1020 1868l-293 -287h-201l197 287h297z" />
    <glyph glyph-name="Acircumflex" unicode="&#xc2;" horiz-adv-x="1372" 
d="M516 633h332l-162 495h-4zM1057 0l-119 360h-512l-121 -360h-297l529 1464h303l522 -1464h-305zM676 1729l-137 -148h-197l221 287h244l219 -287h-203z" />
    <glyph glyph-name="Atilde" unicode="&#xc3;" horiz-adv-x="1372" 
d="M516 633h332l-162 495h-4zM1057 0l-119 360h-512l-121 -360h-297l529 1464h303l522 -1464h-305zM569 1677q-78 0 -90 -78h-141q4 121 62 185q102 114 291 34q81 -34 110 -34q72 0 84 67h153q-18 -244 -213 -243q-59 0 -142 34.5t-114 34.5z" />
    <glyph glyph-name="Adieresis" unicode="&#xc4;" horiz-adv-x="1372" 
d="M516 633h332l-162 495h-4zM1057 0l-119 360h-512l-121 -360h-297l529 1464h303l522 -1464h-305zM911.5 1585q-57.5 0 -96.5 40t-39 96t39 96.5t96.5 40.5t96.5 -40t39 -96t-39 -96.5t-96.5 -40.5zM458.5 1585q-57.5 0 -96 40t-38.5 96t38.5 96.5t96 40.5t97.5 -40t40 -96
t-40 -96.5t-97.5 -40.5z" />
    <glyph glyph-name="Aring" unicode="&#xc5;" horiz-adv-x="1372" 
d="M516 633h332l-162 495h-4zM1057 0l-119 360h-512l-121 -360h-297l529 1464h303l522 -1464h-305zM686 1853q-53 0 -87 -36.5t-34 -91t34 -90.5t87 -36t86 36t33 91.5t-33 91t-86 35.5zM684 1493q-100 0 -169 66.5t-69 165.5t69 168t169 69t170 -68.5t70 -167t-70 -166
t-170 -67.5z" />
    <glyph glyph-name="AE" unicode="&#xc6;" horiz-adv-x="1914" 
d="M864 578v636h-6l-303 -636h309zM1151 248h666v-248h-953v358h-413l-170 -358h-314l725 1462h1108v-248h-649v-346h610v-229h-610v-391z" />
    <glyph glyph-name="Ccedilla" unicode="&#xc7;" horiz-adv-x="1441" 
d="M842 -88q72 0 124 -38t52 -131t-75 -143.5t-179 -50.5q-168 4 -262 80l71 101q63 -51 154.5 -51.5t91.5 69.5q0 61 -78 62q-43 0 -84 -11l-47 51l92 117q-293 20 -456.5 222t-163.5 537t188.5 553t491.5 218q427 1 567 -325q39 -90 49 -195h-284q-27 111 -109 179.5
t-218 68.5t-227 -75q-163 -134 -163 -423q0 -203 92 -346t299 -143q274 0 328 249h284q-27 -211 -180 -356t-381 -164l-43 -55l4 -4q33 4 62 4z" />
    <glyph glyph-name="Egrave" unicode="&#xc8;" horiz-adv-x="1298" 
d="M162 0v1464h1028v-250h-735v-346h673v-247h-673v-371h749v-250h-1042zM625 1581l-295 287h299l194 -287h-198z" />
    <glyph glyph-name="Eacute" unicode="&#xc9;" horiz-adv-x="1298" 
d="M162 0v1464h1028v-250h-735v-346h673v-247h-673v-371h749v-250h-1042zM504 1581l196 287h297l-292 -287h-201z" />
    <glyph glyph-name="Ecircumflex" unicode="&#xca;" horiz-adv-x="1298" 
d="M162 0v1464h1028v-250h-735v-346h673v-247h-673v-371h749v-250h-1042zM322 1581l221 287h243l220 -287h-203l-148 148l-137 -148h-196z" />
    <glyph glyph-name="Edieresis" unicode="&#xcb;" horiz-adv-x="1298" 
d="M162 0v1464h1028v-250h-735v-346h673v-247h-673v-371h749v-250h-1042zM888.5 1585q-57.5 0 -96 40t-38.5 96t38.5 96.5t96 40.5t96.5 -40t39 -96t-39 -96.5t-96.5 -40.5zM436.5 1585q-57.5 0 -96.5 40t-39 96t39 96.5t96.5 40.5t97 -40t39.5 -96t-39.5 -96.5t-97 -40.5z
" />
    <glyph glyph-name="Igrave" unicode="&#xcc;" horiz-adv-x="616" 
d="M162 0v1464h293v-1464h-293zM272 1581l-295 287h299l195 -287h-199z" />
    <glyph glyph-name="Iacute" unicode="&#xcd;" horiz-adv-x="616" 
d="M162 0v1464h293v-1464h-293zM150 1581l196 287h297l-293 -287h-200z" />
    <glyph glyph-name="Icircumflex" unicode="&#xce;" horiz-adv-x="616" 
d="M162 0v1464h293v-1464h-293zM-33 1581l221 287h244l219 -287h-202l-148 148l-137 -148h-197z" />
    <glyph glyph-name="Idieresis" unicode="&#xcf;" horiz-adv-x="616" 
d="M162 0v1464h293v-1464h-293zM534.5 1585q-57.5 0 -96.5 40t-39 96t39 96.5t96.5 40.5t96.5 -40t39 -96t-39 -96.5t-96.5 -40.5zM82 1585q-57 0 -96 40t-39 96t39 96.5t96 40.5t97 -40t40 -96t-40 -96.5t-97 -40.5z" />
    <glyph glyph-name="Eth" unicode="&#xd0;" horiz-adv-x="1503" 
d="M633 274q498 0 497 465q0 217 -125.5 334t-373.5 117h-168v-381h285v-150h-285v-385h170zM684 1464q324 0 531.5 -196.5t207.5 -527.5t-206.5 -535.5t-536.5 -204.5h-510v659h-141v150h141v655h514z" />
    <glyph glyph-name="Ntilde" unicode="&#xd1;" horiz-adv-x="1501" 
d="M162 0v1464h262l641 -952v952h274v-1464h-270l-635 946v-946h-272zM868 1784q72 0 84 67h154q-18 -244 -213 -243q-59 0 -142 34.5t-114 34.5q-78 0 -90 -78h-141q4 121 61 185q102 114 292 34q81 -34 109 -34z" />
    <glyph glyph-name="Ograve" unicode="&#xd2;" horiz-adv-x="1615" 
d="M809 242q205 0 320.5 140t115.5 347t-115.5 349.5t-321.5 142.5t-319.5 -141.5t-113.5 -350.5t114.5 -348t319.5 -139zM809 -35q-330 0 -530.5 218t-200.5 546t200.5 548t530.5 220t529.5 -220t199.5 -548t-199.5 -546t-529.5 -218zM760 1581l-295 287h299l194 -287h-198
z" />
    <glyph glyph-name="Oacute" unicode="&#xd3;" horiz-adv-x="1615" 
d="M809 242q205 0 320.5 140t115.5 347t-115.5 349.5t-321.5 142.5t-319.5 -141.5t-113.5 -350.5t114.5 -348t319.5 -139zM809 -35q-330 0 -530.5 218t-200.5 546t200.5 548t530.5 220t529.5 -220t199.5 -548t-199.5 -546t-529.5 -218zM659 1581l197 287h297l-293 -287h-201
z" />
    <glyph glyph-name="Ocircumflex" unicode="&#xd4;" horiz-adv-x="1615" 
d="M809 242q205 0 320.5 140t115.5 347t-115.5 349.5t-321.5 142.5t-319.5 -141.5t-113.5 -350.5t114.5 -348t319.5 -139zM809 -35q-330 0 -530.5 218t-200.5 546t200.5 548t530.5 220t529.5 -220t199.5 -548t-199.5 -546t-529.5 -218zM467 1581l221 287h244l219 -287h-203
l-147 148l-137 -148h-197z" />
    <glyph glyph-name="Otilde" unicode="&#xd5;" horiz-adv-x="1615" 
d="M809 242q205 0 320.5 140t115.5 347t-115.5 349.5t-321.5 142.5t-319.5 -141.5t-113.5 -350.5t114.5 -348t319.5 -139zM809 -35q-330 0 -530.5 218t-200.5 546t200.5 548t530.5 220t529.5 -220t199.5 -548t-199.5 -546t-529.5 -218zM926 1784q72 0 84 67h153
q-18 -244 -213 -243q-59 0 -142 34.5t-114 34.5q-78 0 -90 -78h-141q3 121 61 185q102 114 292 34q81 -34 110 -34z" />
    <glyph glyph-name="Odieresis" unicode="&#xd6;" horiz-adv-x="1615" 
d="M809 242q205 0 320.5 140t115.5 347t-115.5 349.5t-321.5 142.5t-319.5 -141.5t-113.5 -350.5t114.5 -348t319.5 -139zM809 -35q-330 0 -530.5 218t-200.5 546t200.5 548t530.5 220t529.5 -220t199.5 -548t-199.5 -546t-529.5 -218zM1034.5 1585q-57.5 0 -96.5 40t-39 96
t39 96.5t96.5 40.5t96 -40t38.5 -96t-38.5 -96.5t-96 -40.5zM581.5 1585q-57.5 0 -96.5 40t-39 96t39 96.5t96.5 40.5t97.5 -40t40 -96t-40 -96.5t-97.5 -40.5z" />
    <glyph glyph-name="multiply" unicode="&#xd7;" horiz-adv-x="1083" 
d="M225 76l-141 143l313 334l-311 334l143 143l312 -334l313 334l143 -143l-315 -334l315 -334l-143 -143l-313 336z" />
    <glyph glyph-name="Oslash" unicode="&#xd8;" horiz-adv-x="1617" 
d="M809 242q205 0 320.5 140t115.5 331.5t-80 316.5l-628 -696q112 -92 272 -92zM375 725q0 -166 76 -291l626 696q-109 90 -268 91q-207 0 -320.5 -141.5t-113.5 -354.5zM1538 719.5q0 -318.5 -199.5 -536.5t-529.5 -218q-274 0 -463 156l-160 -176l-98 88l164 182
q-174 205 -174 523.5t200.5 538.5t530.5 220q268 0 459 -154l164 181l98 -88l-168 -187q176 -211 176 -529.5z" />
    <glyph glyph-name="Ugrave" unicode="&#xd9;" horiz-adv-x="1470" 
d="M733.5 -35q-280.5 0 -434.5 160t-154 471v868h295v-868q0 -362 293 -363q297 0 297 363v868h293v-868q0 -309 -154.5 -470t-435 -161zM698 1581l-295 287h299l195 -287h-199z" />
    <glyph glyph-name="Uacute" unicode="&#xda;" horiz-adv-x="1470" 
d="M733.5 -35q-280.5 0 -434.5 160t-154 471v868h295v-868q0 -362 293 -363q297 0 297 363v868h293v-868q0 -309 -154.5 -470t-435 -161zM575 1581l197 287h297l-293 -287h-201z" />
    <glyph glyph-name="Ucircumflex" unicode="&#xdb;" horiz-adv-x="1470" 
d="M733.5 -35q-280.5 0 -434.5 160t-154 471v868h295v-868q0 -362 293 -363q297 0 297 363v868h293v-868q0 -309 -154.5 -470t-435 -161zM393 1581l221 287h244l219 -287h-203l-147 148l-137 -148h-197z" />
    <glyph glyph-name="Udieresis" unicode="&#xdc;" horiz-adv-x="1470" 
d="M733.5 -35q-280.5 0 -434.5 160t-154 471v868h295v-868q0 -362 293 -363q297 0 297 363v868h293v-868q0 -309 -154.5 -470t-435 -161zM962.5 1585q-57.5 0 -96.5 40t-39 96t39 96.5t96.5 40.5t96.5 -40t39 -96t-39 -96.5t-96.5 -40.5zM510 1585q-57 0 -96 40t-39 96
t39 96.5t96 40.5t97 -40t40 -96t-40 -96.5t-97 -40.5z" />
    <glyph glyph-name="Yacute" unicode="&#xdd;" horiz-adv-x="1331" 
d="M516 0v584l-514 878h332l340 -602l330 602h327l-520 -884v-578h-295zM508 1581l197 287h296l-292 -287h-201z" />
    <glyph glyph-name="Thorn" unicode="&#xde;" horiz-adv-x="1314" 
d="M455 512h217q150 0 228.5 49t78.5 182.5t-79 183.5t-228 50h-217v-465zM162 0v1462h293v-256h299q264 0 387 -131t123 -331t-124 -330.5t-388 -130.5h-297v-283h-293z" />
    <glyph glyph-name="germandbls" unicode="&#xdf;" horiz-adv-x="1198" 
d="M817 1082q0 188 -210 188q-104 0 -160 -64.5t-56 -173.5v-1032h-268v987q-1 207 105 349q54 74 152.5 115.5t231.5 41.5q201 0 331 -101.5t130 -291.5q0 -96 -51 -181t-117 -114q90 -29 156.5 -128t66.5 -235q0 -197 -131 -319.5t-358 -122.5h-129v209h98
q119 0 185.5 63.5t66.5 170.5t-69.5 171t-188.5 64h-67v213h47q111 0 173 49.5t62 141.5z" />
    <glyph glyph-name="agrave" unicode="&#xe0;" horiz-adv-x="1122" 
d="M469 184q104 0 174 76t70 182v50q-20 -14 -64 -23l-153 -33q-80 -18 -120 -49t-40 -86q0 -117 133 -117zM397 -29q-143 0 -239.5 83t-96.5 229q0 276 363 342l176 34q66 10 88.5 29t22.5 62q0 106 -176 106t-177 -115h-260q0 166 126 256t323 90t314.5 -90t117.5 -313
v-401q0 -66 61 -66h25v-217h-203q-131 0 -131 129v10q-101 -168 -334 -168zM635 1178h-170l-262 290h278z" />
    <glyph glyph-name="aacute" unicode="&#xe1;" horiz-adv-x="1122" 
d="M469 184q104 0 174 76t70 182v50q-20 -14 -64 -23l-153 -33q-80 -18 -120 -49t-40 -86q0 -117 133 -117zM397 -29q-143 0 -239.5 83t-96.5 229q0 276 363 342l176 34q66 10 88.5 29t22.5 62q0 106 -176 106t-177 -115h-260q0 166 126 256t323 90t314.5 -90t117.5 -313
v-401q0 -66 61 -66h25v-217h-203q-131 0 -131 129v10q-101 -168 -334 -168zM387 1178l152 290h280l-264 -290h-168z" />
    <glyph glyph-name="acircumflex" unicode="&#xe2;" horiz-adv-x="1122" 
d="M469 184q104 0 174 76t70 182v50q-20 -14 -64 -23l-153 -33q-80 -18 -120 -49t-40 -86q0 -117 133 -117zM397 -29q-143 0 -239.5 83t-96.5 229q0 276 363 342l176 34q66 10 88.5 29t22.5 62q0 106 -176 106t-177 -115h-260q0 166 126 256t323 90t314.5 -90t117.5 -313
v-401q0 -66 61 -66h25v-217h-203q-131 0 -131 129v10q-101 -168 -334 -168zM199 1178l217 290h243l215 -290h-204l-142 149l-133 -149h-196z" />
    <glyph glyph-name="atilde" unicode="&#xe3;" horiz-adv-x="1122" 
d="M469 184q104 0 174 76t70 182v50q-20 -14 -64 -23l-153 -33q-80 -18 -120 -49t-40 -86q0 -117 133 -117zM397 -29q-143 0 -239.5 83t-96.5 229q0 276 363 342l176 34q66 10 88.5 29t22.5 62q0 106 -176 106t-177 -115h-260q0 166 126 256t323 90t314.5 -90t117.5 -313
v-401q0 -66 61 -66h25v-217h-203q-131 0 -131 129v10q-101 -168 -334 -168zM639 1397q70 0 84 63h168q-18 -250 -217 -250q-57 0 -136 32t-110 32q-80 0 -88 -74h-156q4 126 62 192q101 116 286 38q78 -32 107 -33z" />
    <glyph glyph-name="adieresis" unicode="&#xe4;" horiz-adv-x="1122" 
d="M469 184q104 0 174 76t70 182v50q-20 -14 -64 -23l-153 -33q-80 -18 -120 -49t-40 -86q0 -117 133 -117zM397 -29q-143 0 -239.5 83t-96.5 229q0 276 363 342l176 34q66 10 88.5 29t22.5 62q0 106 -176 106t-177 -115h-260q0 166 126 256t323 90t314.5 -90t117.5 -313
v-401q0 -66 61 -66h25v-217h-203q-131 0 -131 129v10q-101 -168 -334 -168zM735.5 1208q-57.5 0 -96.5 39t-39 96.5t39 96.5t96.5 39t97 -39t39.5 -96.5t-39.5 -96.5t-97 -39zM338 1208q-57 0 -97 39t-40 96.5t40 96.5t97 39t96 -39t39 -96.5t-39 -96.5t-96 -39z" />
    <glyph glyph-name="aring" unicode="&#xe5;" horiz-adv-x="1122" 
d="M469 184q104 0 174 76t70 182v50q-20 -14 -64 -23l-153 -33q-80 -18 -120 -49t-40 -86q0 -117 133 -117zM397 -29q-143 0 -239.5 83t-96.5 229q0 276 363 342l176 34q66 10 88.5 29t22.5 62q0 106 -176 106t-177 -115h-260q0 166 126 256t323 90t314.5 -90t117.5 -313
v-401q0 -66 61 -66h25v-217h-203q-131 0 -131 129v10q-101 -168 -334 -168zM538 1219q52 0 84.5 35.5t32.5 91t-32.5 90t-84.5 34.5t-85 -35.5t-33 -89.5t33 -90t85 -36zM536.5 1108q-100.5 0 -169 68.5t-68.5 168t68.5 169t169 69.5t170 -69.5t69.5 -168.5t-69.5 -168
t-170 -69z" />
    <glyph glyph-name="ae" unicode="&#xe6;" horiz-adv-x="1775" 
d="M713 442v50q-20 -14 -64 -23l-153 -33q-80 -18 -120 -49t-40 -86q0 -117 124 -117t188.5 73.5t64.5 184.5zM1232 848q-183 0 -220 -193h438q-35 193 -218 193zM1239 209q166 0 191 121h258q-29 -160 -153 -259.5t-296 -99.5q-281 0 -414 197q-143 -197 -428 -197
q-143 0 -239.5 85t-96.5 231q0 274 363 338l178 32q63 10 86 29t23 64q0 106 -173 106t-173 -121h-267q0 170 126 261t319 91q250 0 354 -124q137 125 348 124.5t341 -145.5t130 -399q0 -37 -4 -99h-708q12 -113 73.5 -174t161.5 -61z" />
    <glyph glyph-name="ccedilla" unicode="&#xe7;" horiz-adv-x="1107" 
d="M571 219q182 0 213 162h260q-20 -180 -124.5 -284.5t-278.5 -121.5l-49 -63l4 -4q33 4 61 4q72 0 124.5 -38t52.5 -131t-75 -143.5t-179 -50.5q-168 4 -263 80l72 101q63 -52 155 -52t91 70q0 61 -78 62q-43 0 -84 -11l-47 51l98 123q-216 14 -334 164q-118 149 -118 391
t136 400.5t374 158.5q197 0 321.5 -104t140.5 -311h-260q-35 168 -209 168q-119 0 -178 -90.5t-59 -225.5t56 -220t177 -85z" />
    <glyph glyph-name="egrave" unicode="&#xe8;" horiz-adv-x="1122" 
d="M573 848q-186 0 -225 -193h447q-36 193 -222 193zM582 -29q-233 0 -371.5 142.5t-138.5 405.5t140 415.5t364.5 152.5t355.5 -145t131 -399q0 -37 -4 -99h-719q20 -238 238 -237q154 0 194 123h258q-23 -160 -148.5 -259.5t-299.5 -99.5zM672 1178h-170l-262 290h278z
" />
    <glyph glyph-name="eacute" unicode="&#xe9;" horiz-adv-x="1122" 
d="M573 848q-186 0 -225 -193h447q-36 193 -222 193zM582 -29q-233 0 -371.5 142.5t-138.5 405.5t140 415.5t364.5 152.5t355.5 -145t131 -399q0 -37 -4 -99h-719q20 -238 238 -237q154 0 194 123h258q-23 -160 -148.5 -259.5t-299.5 -99.5zM856 1468l-264 -290h-168
l151 290h281z" />
    <glyph glyph-name="ecircumflex" unicode="&#xea;" horiz-adv-x="1122" 
d="M573 848q-186 0 -225 -193h447q-36 193 -222 193zM582 -29q-233 0 -371.5 142.5t-138.5 405.5t140 415.5t364.5 152.5t355.5 -145t131 -399q0 -37 -4 -99h-719q20 -238 238 -237q154 0 194 123h258q-23 -160 -148.5 -259.5t-299.5 -99.5zM563 1327l-133 -149h-197
l218 290h243l215 -290h-204z" />
    <glyph glyph-name="edieresis" unicode="&#xeb;" horiz-adv-x="1122" 
d="M573 848q-186 0 -225 -193h447q-36 193 -222 193zM582 -29q-233 0 -371.5 142.5t-138.5 405.5t140 415.5t364.5 152.5t355.5 -145t131 -399q0 -37 -4 -99h-719q20 -238 238 -237q154 0 194 123h258q-23 -160 -148.5 -259.5t-299.5 -99.5zM770 1208q-57 0 -96 39t-39 96.5
t39 96.5t96 39t97 -39t40 -96.5t-40 -96.5t-97 -39zM372.5 1208q-57.5 0 -97 39t-39.5 96.5t39.5 96.5t97 39t96.5 -39t39 -96.5t-39 -96.5t-96.5 -39z" />
    <glyph glyph-name="igrave" unicode="&#xec;" horiz-adv-x="514" 
d="M123 0v1059h266v-1059h-266zM356 1178h-170l-262 290h279z" />
    <glyph glyph-name="iacute" unicode="&#xed;" horiz-adv-x="514" 
d="M123 0v1059h266v-1059h-266zM109 1178l151 290h281l-265 -290h-167z" />
    <glyph glyph-name="icircumflex" unicode="&#xee;" horiz-adv-x="514" 
d="M123 0v1059h266v-1059h-266zM-82 1178l217 290h244l215 -290h-205l-141 149l-133 -149h-197z" />
    <glyph glyph-name="idieresis" unicode="&#xef;" horiz-adv-x="514" 
d="M123 0v1059h266v-1059h-266zM454.5 1208q-57.5 0 -96.5 39t-39 96.5t39 96.5t96.5 39t97.5 -39t40 -96.5t-40 -96.5t-97.5 -39zM57.5 1208q-57.5 0 -97.5 39t-40 96.5t40 96.5t97.5 39t96.5 -39t39 -96.5t-39 -96.5t-96.5 -39z" />
    <glyph glyph-name="eth" unicode="&#xf0;" horiz-adv-x="1173" 
d="M583 217q111 0 179 78t68 214t-68 214t-180 78t-179 -78t-67 -214t68 -214t179 -78zM1096 514v-4q0 -227 -142 -383t-371 -156q-228 0 -371 151q-142 151 -142 382t143 387t371 156q59 0 118 -13q-74 117 -151 174l-217 -116l-70 129l158 82q-53 45 -94 65l135 193
q125 -74 196 -136l236 129l78 -124l-199 -107q322 -334 322 -809z" />
    <glyph glyph-name="ntilde" unicode="&#xf1;" horiz-adv-x="1179" 
d="M123 0v1059h254v-117q41 68 123 106.5t172 38.5q182 0 287.5 -113.5t105.5 -318.5v-655h-266l2 592q0 111 -53.5 174t-149.5 63t-152.5 -72.5t-56.5 -189.5v-567h-266zM694 1397q70 0 84 63h168q-18 -250 -217 -250q-57 0 -136 32t-110 32q-78 0 -88 -74h-155
q4 126 62 192q101 116 286 38q78 -32 106 -33z" />
    <glyph glyph-name="ograve" unicode="&#xf2;" horiz-adv-x="1165" 
d="M583 217q114 0 180 84t66 228t-66.5 227.5t-179 83.5t-180 -83t-67.5 -228.5t66.5 -228.5t180.5 -83zM582 -29q-231 0 -371.5 156t-140.5 397.5t142 402t372.5 160.5t371 -155.5t140.5 -397.5t-141.5 -402.5t-372.5 -160.5zM682 1178h-170l-262 290h278z" />
    <glyph glyph-name="oacute" unicode="&#xf3;" horiz-adv-x="1165" 
d="M583 217q114 0 180 84t66 228t-66.5 227.5t-179 83.5t-180 -83t-67.5 -228.5t66.5 -228.5t180.5 -83zM582 -29q-231 0 -371.5 156t-140.5 397.5t142 402t372.5 160.5t371 -155.5t140.5 -397.5t-141.5 -402.5t-372.5 -160.5zM432 1178l152 290h280l-264 -290h-168z" />
    <glyph glyph-name="ocircumflex" unicode="&#xf4;" horiz-adv-x="1165" 
d="M583 217q114 0 180 84t66 228t-66.5 227.5t-179 83.5t-180 -83t-67.5 -228.5t66.5 -228.5t180.5 -83zM582 -29q-231 0 -371.5 156t-140.5 397.5t142 402t372.5 160.5t371 -155.5t140.5 -397.5t-141.5 -402.5t-372.5 -160.5zM244 1178l217 290h244l215 -290h-205l-142 149
l-133 -149h-196z" />
    <glyph glyph-name="otilde" unicode="&#xf5;" horiz-adv-x="1165" 
d="M583 217q114 0 180 84t66 228t-66.5 227.5t-179 83.5t-180 -83t-67.5 -228.5t66.5 -228.5t180.5 -83zM582 -29q-231 0 -371.5 156t-140.5 397.5t142 402t372.5 160.5t371 -155.5t140.5 -397.5t-141.5 -402.5t-372.5 -160.5zM684 1397q70 0 84 63h168q-18 -250 -217 -250
q-57 0 -136 32t-110 32q-80 0 -88 -74h-156q5 126 63 192q101 116 285 38q78 -32 107 -33z" />
    <glyph glyph-name="odieresis" unicode="&#xf6;" horiz-adv-x="1165" 
d="M583 217q114 0 180 84t66 228t-66.5 227.5t-179 83.5t-180 -83t-67.5 -228.5t66.5 -228.5t180.5 -83zM582 -29q-231 0 -371.5 156t-140.5 397.5t142 402t372.5 160.5t371 -155.5t140.5 -397.5t-141.5 -402.5t-372.5 -160.5zM780.5 1208q-57.5 0 -96.5 39t-39 96.5
t39 96.5t96.5 39t97.5 -39t40 -96.5t-40 -96.5t-97.5 -39zM383 1208q-57 0 -97 39t-40 96.5t40 96.5t97 39t96 -39t39 -96.5t-39 -96.5t-96 -39z" />
    <glyph glyph-name="divide" unicode="&#xf7;" horiz-adv-x="1138" 
d="M568 -37q-64 0 -112 49t-48 116t48 115t114 48t112 -48q47 -49 47 -113t-48 -116q-49 -51 -113 -51zM78 453v202h983v-202h-983zM568 815q-64 0 -112 48t-48 117t48 117t114 48t112 -48q47 -49 47 -115t-48 -117q-49 -50 -113 -50z" />
    <glyph glyph-name="oslash" unicode="&#xf8;" horiz-adv-x="1167" 
d="M831 508.5q0 123.5 -32 189.5l-373 -422q63 -59 168 -59t171 84t66 207.5zM338 551.5q0 -121.5 31 -193.5l372 424q-61 57 -164.5 57.5t-171 -83t-67.5 -205zM1098 522.5q0 -230.5 -141.5 -391t-370.5 -160.5q-195 0 -330 113l-121 -137l-74 63l127 144
q-117 152 -116.5 382t142.5 390.5t372 160.5q193 0 327 -112l121 137l74 -63l-127 -144q117 -152 117 -382.5z" />
    <glyph glyph-name="ugrave" unicode="&#xf9;" horiz-adv-x="1163" 
d="M502 -29q-186 0 -287.5 115t-101.5 320v653h266l-2 -598q0 -125 49 -179.5t145 -54.5q203 0 203 271v561h266v-1059h-254v117q-31 -68 -109.5 -107t-174.5 -39zM684 1178h-170l-262 290h278z" />
    <glyph glyph-name="uacute" unicode="&#xfa;" horiz-adv-x="1163" 
d="M502 -29q-186 0 -287.5 115t-101.5 320v653h266l-2 -598q0 -125 49 -179.5t145 -54.5q203 0 203 271v561h266v-1059h-254v117q-31 -68 -109.5 -107t-174.5 -39zM436 1178l152 290h280l-264 -290h-168z" />
    <glyph glyph-name="ucircumflex" unicode="&#xfb;" horiz-adv-x="1163" 
d="M502 -29q-186 0 -287.5 115t-101.5 320v653h266l-2 -598q0 -125 49 -179.5t145 -54.5q203 0 203 271v561h266v-1059h-254v117q-31 -68 -109.5 -107t-174.5 -39zM246 1178l217 290h244l215 -290h-205l-142 149l-133 -149h-196z" />
    <glyph glyph-name="udieresis" unicode="&#xfc;" horiz-adv-x="1163" 
d="M502 -29q-186 0 -287.5 115t-101.5 320v653h266l-2 -598q0 -125 49 -179.5t145 -54.5q203 0 203 271v561h266v-1059h-254v117q-31 -68 -109.5 -107t-174.5 -39zM782.5 1208q-57.5 0 -96.5 39t-39 96.5t39 96.5t96.5 39t97.5 -39t40 -96.5t-40 -96.5t-97.5 -39zM385 1208
q-57 0 -97 39t-40 96.5t40 96.5t97 39t96 -39t39 -96.5t-39 -96.5t-96 -39z" />
    <glyph glyph-name="yacute" unicode="&#xfd;" horiz-adv-x="1054" 
d="M307 -217q131 0 129 106q0 37 -49 170l-371 1000h291l127 -389l131 -441l105 441l100 389h270l-389 -1256q-41 -133 -115.5 -189t-209.5 -56h-226v225h207zM383 1178l152 290h280l-264 -290h-168z" />
    <glyph glyph-name="thorn" unicode="&#xfe;" horiz-adv-x="1191" 
d="M618.5 217q108.5 0 173 85t64.5 226t-64.5 226.5t-173 85.5t-170 -84t-61.5 -226.5t61.5 -227.5t170 -85zM673.5 1087q187.5 0 318 -150.5t130.5 -401t-136 -407.5t-331 -157q-164 0 -266 103v-516h-266v1910h252v-510q111 129 298.5 129z" />
    <glyph glyph-name="ydieresis" unicode="&#xff;" horiz-adv-x="1054" 
d="M307 -217q131 0 129 106q0 37 -49 170l-371 1000h291l127 -389l131 -441l105 441l100 389h270l-389 -1256q-41 -133 -115.5 -189t-209.5 -56h-226v225h207zM731 1208q-57 0 -96 39t-39 96.5t39 96.5t96 39t97 -39t40 -96.5t-40 -96.5t-97 -39zM333.5 1208q-57.5 0 -97 39
t-39.5 96.5t39.5 96.5t97 39t96.5 -39t39 -96.5t-39 -96.5t-96.5 -39z" />
    <glyph glyph-name="dotlessi" unicode="&#x131;" horiz-adv-x="514" 
d="M123 0v1059h266v-1059h-266z" />
    <glyph glyph-name="Ldot" unicode="&#x13f;" horiz-adv-x="1150" 
d="M895 651q-68 0 -120 51.5t-52 122t52 121.5t120 51t119 -51t51 -120t-51 -122t-119 -53zM162 0v1464h293v-1196h649v-268h-942z" />
    <glyph glyph-name="ldot" unicode="&#x140;" horiz-adv-x="778" 
d="M639 618q-68 0 -120 51.5t-52 122.5t52 122t120 51t119 -51.5t51 -120t-51 -122t-119 -53.5zM371 0q-123 0 -187.5 52t-64.5 184v1232h264v-1169q0 -43 18.5 -60.5t57.5 -17.5h86v-221h-174z" />
    <glyph glyph-name="Lslash" unicode="&#x141;" horiz-adv-x="1196" 
d="M512 268h649v-268h-942v532l-176 -129v211l176 129v721h293v-508l203 148v-211l-203 -148v-477z" />
    <glyph glyph-name="lslash" unicode="&#x142;" horiz-adv-x="684" 
d="M530 221h86v-221h-174q-123 0 -187.5 52t-64.5 184v325l-124 -102v192l124 103v714h265v-499l139 114v-194l-139 -113v-477q0 -43 18 -60.5t57 -17.5z" />
    <glyph glyph-name="OE" unicode="&#x152;" horiz-adv-x="2238" 
d="M775 217q134 0 220 57.5t121 141.5v628q-106 201 -336 201q-203 0 -304 -150.5t-101 -367.5q0 -293 173 -434q93 -76 227 -76zM768.5 -35q-225.5 0 -382.5 106.5t-231.5 275.5t-74.5 377t79 382t236.5 282.5t382 108.5t346.5 -127v94h1006v-250h-729v-346h670v-233h-670
v-385h743v-250h-1020v113q-130 -148 -355.5 -148z" />
    <glyph glyph-name="oe" unicode="&#x153;" horiz-adv-x="1873" 
d="M583 217q112 0 179 84t67 228t-67.5 227.5t-179 83.5t-179 -83t-67.5 -227.5t67.5 -228.5t179.5 -84zM1331 848q-188 0 -223 -193h440q-29 193 -217 193zM581 -29q-226 0 -368.5 157t-142.5 396t143 401t373.5 162t374.5 -165q137 166 365 165.5t358.5 -145.5t130.5 -399
q0 -37 -5 -99h-708q12 -113 74.5 -174t162.5 -61q162 0 191 121h256q-29 -160 -153 -259.5t-296 -99.5q-252 0 -385 162q-145 -162 -371 -162z" />
    <glyph glyph-name="Scaron" unicode="&#x160;" horiz-adv-x="1290" 
d="M109 1072q0 202 149.5 313.5t377 111.5t385 -115.5t159.5 -353.5h-285q-12 231 -274 232q-96 0 -161 -39t-65 -122t64.5 -125t225.5 -94t216 -72q161 -59 225 -134q86 -100 86 -246q0 -207 -149.5 -335t-410.5 -128t-421.5 126t-156.5 388h284q-4 -270 295 -270
q274 0 275 180q0 94 -68.5 136t-277.5 106q-113 31 -188 61q-76 30 -146 80q-140 98 -139 300zM510 1581l-217 287h205l143 -148l137 148h195l-219 -287h-244z" />
    <glyph glyph-name="scaron" unicode="&#x161;" horiz-adv-x="1024" 
d="M502.5 -29q-193.5 0 -317.5 84t-124 277h261q8 -139 186 -139q98 0 139 22.5t41 68.5t-30.5 64.5t-131.5 52.5l-172 56q-101 29 -184.5 93.5t-82.5 192.5q1 127 65 205q115 138 360 139q182 0 299 -80.5t119 -258.5h-260q-2 57 -46 86.5t-118 29.5q-145 0 -146 -86
q0 -31 23 -51t82 -41l225 -74q131 -45 197.5 -110.5t66.5 -186.5q0 -176 -129 -260t-322.5 -84zM385 1178l-215 288h205l141 -149l133 149h197l-217 -288h-244z" />
    <glyph glyph-name="Ydieresis" unicode="&#x178;" horiz-adv-x="1331" 
d="M516 0v584l-514 878h332l340 -602l330 602h327l-520 -884v-578h-295zM893 1585q-57 0 -96 40t-39 96t39 96.5t96 40.5t96 -40t39 -96t-39 -96.5t-96 -40.5zM440.5 1585q-57.5 0 -96.5 40t-39 96t39 96.5t96.5 40.5t97.5 -40t40 -96t-40 -96.5t-97.5 -40.5z" />
    <glyph glyph-name="Zcaron" unicode="&#x17d;" horiz-adv-x="1306" 
d="M80 0v252l481 614q164 213 262 320h-731v276h1100v-252l-502 -637q-127 -176 -241 -303h792v-270h-1161zM518 1581l-217 287h205l143 -148l137 148h195l-219 -287h-244z" />
    <glyph glyph-name="zcaron" unicode="&#x17e;" horiz-adv-x="1030" 
d="M70 0v201l526 635h-514v223h844v-201l-525 -637h576v-221h-907zM381 1178l-215 288h205l141 -149l133 149h197l-217 -288h-244z" />
    <glyph glyph-name="florin" unicode="&#x192;" horiz-adv-x="1021" 
d="M-45 -342v233h143q70 0 100 36t44 116l114 657h-182l35 185h180l45 239q35 188 120 264t271 74h168v-235h-137q-76 0 -108 -30t-46 -103l-38 -209h194l-33 -185h-194l-111 -655q-37 -209 -119 -298t-280 -89h-166z" />
    <glyph glyph-name="circumflex" unicode="&#x2c6;" horiz-adv-x="714" 
d="M20 1178l218 290h243l215 -290h-204l-142 149l-133 -149h-197z" />
    <glyph glyph-name="caron" unicode="&#x2c7;" horiz-adv-x="714" 
d="M236 1178l-216 288h205l142 -149l133 149h196l-217 -288h-243z" />
    <glyph glyph-name="uni02C9" unicode="&#x2c9;" horiz-adv-x="755" 
d="M20 1272v143h715v-143h-715z" />
    <glyph glyph-name="breve" unicode="&#x2d8;" horiz-adv-x="688" 
d="M340 1167q-137 0 -225 75t-95 224h144q16 -150 176 -150t188 150h140q-18 -152 -104.5 -225.5t-223.5 -73.5z" />
    <glyph glyph-name="dotaccent" unicode="&#x2d9;" horiz-adv-x="370" 
d="M185 1182q-69 0 -117 47t-48 116.5t48.5 117.5t117 48t116.5 -48t48 -117.5t-48 -116.5t-117 -47z" />
    <glyph glyph-name="ring" unicode="&#x2da;" horiz-adv-x="518" 
d="M267 1219q52 0 85 35.5t33 91t-33 90t-85 34.5t-84.5 -35.5t-32.5 -89.5t32.5 -90t84.5 -36zM266.5 1108q-100.5 0 -169 68.5t-68.5 168t68.5 169t169 69.5t170 -69.5t69.5 -168.5t-69.5 -168t-170 -69z" />
    <glyph glyph-name="ogonek" unicode="&#x2db;" horiz-adv-x="489" 
d="M207 -240q0 -79 94 -79q47 0 100 55l68 -60q-93 -118 -238 -118q-90 0 -150 44t-61 122q0 141 232 276h123q-168 -141 -168 -240z" />
    <glyph glyph-name="tilde" unicode="&#x2dc;" horiz-adv-x="737" 
d="M471 1397q70 0 84 63h168q-18 -250 -217 -250q-57 0 -136 32t-110 32q-80 0 -88 -74h-156q4 126 62 192q101 116 286 38q78 -32 107 -33z" />
    <glyph glyph-name="hungarumlaut" unicode="&#x2dd;" horiz-adv-x="796" 
d="M377 1178l135 290h264l-229 -290h-170zM20 1178l115 290h264l-209 -290h-170z" />
    <glyph glyph-name="gravecomb" unicode="&#x300;" 
d="M-104 1178h-170l-263 290h279z" />
    <glyph glyph-name="acutecomb" unicode="&#x301;" 
d="M-537 1178l152 290h281l-265 -290h-168z" />
    <glyph glyph-name="uni0302" unicode="&#x302;" 
d="M-707 1178l218 290h243l215 -290h-205l-141 149l-133 -149h-197z" />
    <glyph glyph-name="tildecomb" unicode="&#x303;" 
d="M-266 1397q70 0 84 63h168q-18 -250 -217 -250q-57 0 -136 32t-110 32q-80 0 -88 -74h-156q5 126 63 192q101 116 285 38q78 -32 107 -33z" />
    <glyph glyph-name="uni0304" unicode="&#x304;" 
d="M-735 1266v143h715v-143h-715z" />
    <glyph glyph-name="uni0306" unicode="&#x306;" 
d="M-348 1167q-137 0 -225.5 75t-94.5 224h144q16 -150 176 -150t188 150h140q-18 -152 -104.5 -225.5t-223.5 -73.5z" />
    <glyph glyph-name="uni0307" unicode="&#x307;" 
d="M-247 1182q-69 0 -117 47t-48 116.5t48.5 117.5t117 48t116.5 -48t48 -117.5t-48 -116.5t-117 -47z" />
    <glyph glyph-name="uni0308" unicode="&#x308;" 
d="M-149.5 1208q-57.5 0 -96.5 39t-39 96.5t39 96.5t96.5 39t97.5 -39t40 -96.5t-40 -96.5t-97.5 -39zM-546.5 1208q-57.5 0 -97.5 39t-40 96.5t40 96.5t97.5 39t96 -39t38.5 -96.5t-38.5 -96.5t-96 -39z" />
    <glyph glyph-name="uni030A" unicode="&#x30a;" 
d="M-255 1219q52 0 85 35.5t33 91t-33 90t-85 34.5t-85 -35.5t-33 -89.5t33 -90t85 -36zM-256 1108q-100 0 -169 68.5t-69 168t69 169t169 69.5t170 -69.5t70 -168.5t-70 -168t-170 -69z" />
    <glyph glyph-name="uni030B" unicode="&#x30b;" 
d="M-426 1178l135 290h264l-229 -290h-170zM-782 1178l114 290h265l-209 -290h-170z" />
    <glyph glyph-name="uni030C" unicode="&#x30c;" 
d="M-492 1178l-215 288h205l142 -149l133 149h196l-217 -288h-244z" />
    <glyph glyph-name="uni0326" unicode="&#x326;" 
d="M-399 -551v107q100 8 110 59h-2q-72 0 -117 41t-45 115t48.5 121t113.5 47q176 0 176 -193q0 -147 -78.5 -222t-205.5 -75z" />
    <glyph glyph-name="uni0327" unicode="&#x327;" 
d="M-217 -252q0 61 -78 62q-43 0 -84 -11l-47 51l119 150h117l-70 -88l4 -4q33 4 61 4q72 0 124.5 -38t52.5 -131t-75 -143.5t-179 -50.5q-168 4 -263 80l72 101q63 -51 154.5 -51.5t91.5 69.5z" />
    <glyph glyph-name="uni0328" unicode="&#x328;" 
d="M-305 -240q0 -79 94 -79q47 0 100 55l68 -60q-93 -118 -238 -118q-90 0 -150.5 44t-60.5 122q0 141 232 276h123q-168 -141 -168 -240z" />
    <glyph glyph-name="uni0335" unicode="&#x335;" 
d="M-739 1167v150h719v-150h-719z" />
    <glyph glyph-name="uni0336" unicode="&#x336;" 
d="M-1300 1157h1167v-141h-1167v141z" />
    <glyph glyph-name="uni0337" unicode="&#x337;" 
d="M-549 494v192l529 432v-194z" />
    <glyph glyph-name="uni0338" unicode="&#x338;" 
d="M-1081 -59l-74 63l973 1102l73 -64z" />
    <glyph glyph-name="uni0394" unicode="&#x394;" horiz-adv-x="1337" 
d="M354 233h627l-322 938zM16 0l508 1458h269l542 -1458h-1319z" />
    <glyph glyph-name="uni03A9" unicode="&#x3a9;" horiz-adv-x="1486" 
d="M100 0v221h349v55q-166 66 -257.5 219.5t-91.5 342.5q0 283 186.5 461t457.5 178t456.5 -176.5t185.5 -458.5q0 -190 -91 -348t-259 -218v-55h348v-221h-550v426q135 31 207.5 144.5t72.5 278.5t-100.5 278.5t-268 113.5t-270 -114.5t-102.5 -281.5t70.5 -274.5
t209.5 -144.5v-426h-553z" />
    <glyph glyph-name="uni03BC" unicode="&#x3bc;" horiz-adv-x="1173" 
d="M123 -371v1430h266l-2 -606q0 -119 46 -175t145 -57q207 0 206 275v563h267v-1059h-254v96q-84 -125 -242 -125q-109 0 -166 56v-398h-266z" />
    <glyph glyph-name="pi" unicode="&#x3c0;" horiz-adv-x="1267" 
d="M997 -16q-123 0 -170 72t-47 202v514h-329v-772h-242v772h-152v223h1127v-223h-164v-448q0 -41 2 -64q2 -24 20 -48t56 -24t82 25v-180q-99 -49 -183 -49z" />
    <glyph glyph-name="endash" unicode="&#x2013;" horiz-adv-x="1204" 
d="M117 444v228h973v-228h-973z" />
    <glyph glyph-name="emdash" unicode="&#x2014;" horiz-adv-x="1671" 
d="M117 444v228h1439v-228h-1439z" />
    <glyph glyph-name="quoteleft" unicode="&#x2018;" horiz-adv-x="505" 
d="M253 862q-73 0 -121 52t-48 147q0 197 94 300t203 105v-131q-55 0 -96 -46t-41 -103h8q76 0 121 -46t45 -117t-46 -116t-119 -45z" />
    <glyph glyph-name="quoteright" unicode="&#x2019;" horiz-adv-x="505" 
d="M94 1306q0 72 46 116t119 44t121 -52t48 -146q0 -197 -94 -300t-203 -106v131q55 0 96 46t41 104h-8q-76 0 -121 46t-45 117z" />
    <glyph glyph-name="quotesinglbase" unicode="&#x201a;" horiz-adv-x="524" 
d="M92 159q0 71 46 115t119 45q73 0 121 -52t48 -146q0 -197 -94 -300t-203 -106v131q55 0 96 46t41 104h-8q-76 0 -121 46t-45 117z" />
    <glyph glyph-name="quotedblleft" unicode="&#x201c;" horiz-adv-x="911" 
d="M825 1021q1 -71 -45 -116t-119 -45t-121 52t-48 147q0 197 94 300t202 105v-131q-55 0 -96 -46t-41 -103h8q76 0 121 -46t45 -117zM253 860q-73 0 -121 52t-48 147q0 197 94 300t203 105v-131q-55 0 -96 -46t-41 -103h8q76 0 121 -46t45 -117t-46 -116t-119 -45z" />
    <glyph glyph-name="quotedblright" unicode="&#x201d;" horiz-adv-x="911" 
d="M502 1306q0 72 46 116t119 44t121 -52t48 -146q0 -197 -94 -300t-203 -106v131q55 0 96 46t41 104h-8q-76 0 -121 46t-45 117zM94 1306q0 72 46 116t119 44t121 -52t48 -146q0 -197 -94 -300t-203 -106v131q55 0 96 46t41 104h-8q-76 0 -121 46t-45 117z" />
    <glyph glyph-name="quotedblbase" unicode="&#x201e;" horiz-adv-x="937" 
d="M506 159q0 71 46 115t119 45q73 0 121 -52t48 -146q0 -197 -94 -300t-203 -106v131q55 0 96 46t41 104h-8q-76 0 -121 46t-45 117zM92 159q0 71 46 115t119 45q73 0 121 -52t48 -146q0 -197 -94 -300t-203 -106v131q55 0 96 46t41 104h-8q-76 0 -121 46t-45 117z" />
    <glyph glyph-name="dagger" unicode="&#x2020;" horiz-adv-x="1191" 
d="M467 -334v1163h-363v220h363v413h254v-413h366v-220h-366v-1163h-254z" />
    <glyph glyph-name="daggerdbl" unicode="&#x2021;" horiz-adv-x="1191" 
d="M467 -334v395h-363v220h363v557h-363v221h363v403h254v-403h366v-221h-366v-557h366v-220h-366v-395h-254z" />
    <glyph glyph-name="bullet" unicode="&#x2022;" horiz-adv-x="892" 
d="M446 367q-133 0 -226 99q-93 100 -93 240t93 238t226 98q134 0 228 -98t94 -238t-94 -240q-95 -99 -228 -99z" />
    <glyph glyph-name="ellipsis" unicode="&#x2026;" horiz-adv-x="1673" 
d="M1414 -10q-71 0 -122 51t-51 123t50 122t122 50t121 -50t49 -122t-49 -123t-120 -51zM838 336q72 0 120 -50t50 -122q0 -72 -49 -123t-120 -51t-122 51t-51 123t50 122t122 50zM261 -10q-71 0 -122 51t-51 123t50 122t122 50t121 -50t49 -122t-49 -123t-120 -51z" />
    <glyph glyph-name="perthousand" unicode="&#x2030;" horiz-adv-x="2609" 
d="M1976 350q0 -76 48 -136t140 -60q93 0 142 60t49 134t-49 136t-140 62q-90 0 -140 -60t-50 -136zM1293 154q93 0 143 60q49 60 49 134t-50 136q-51 62 -141 62t-140 -60t-50 -136t48 -136t141 -60zM2162 -29q-167 0 -274 110q-106 111 -106 269t112 268t279 109
q168 0 272 -109q105 -108 105 -268t-110 -270t-278 -109zM1302 727q166 0 272 -109q106 -108 105 -268q1 -160 -111 -270t-279 -109q-167 0 -272 110q-105 111 -105 269t111 268q113 110 279 109zM443 883q93 0 143 60q49 60 49 134t-50 136q-51 63 -141 63t-140 -60
t-50 -137q0 -76 48 -136t141 -60zM829 1079q1 -159 -111 -269t-279 -110t-272 110t-105 268t111 269q113 109 279 109t272 -108q105 -109 105 -269zM377 -49l809 1528h178l-805 -1528h-182z" />
    <glyph glyph-name="guilsinglleft" unicode="&#x2039;" horiz-adv-x="518" 
d="M395 172l-301 258v254l301 254v-227l-174 -154l174 -156v-229z" />
    <glyph glyph-name="guilsinglright" unicode="&#x203a;" horiz-adv-x="518" 
d="M125 172v229l174 156l-174 154v227l299 -254v-254z" />
    <glyph glyph-name="fraction" unicode="&#x2044;" horiz-adv-x="983" 
d="M-4 -47l811 1524h182l-807 -1524h-186z" />
    <glyph glyph-name="Euro" unicode="&#x20ac;" horiz-adv-x="1298" 
d="M725 -6q-219 0 -361 141t-165 410h-136v143h134v96h-134v142h136q27 264 169 408t371 145q187 0 325 -109t150 -319h-266q-41 180 -217 180q-209 0 -229 -305h413l-2 -142h-417q-2 -16 -2 -47v-49h419l-2 -143h-415q2 -152 68 -227t163 -74q188 0 215 190h266
q-22 -323 -323 -417q-78 -23 -160 -23z" />
    <glyph glyph-name="trademark" unicode="&#x2122;" horiz-adv-x="1943" 
d="M864 618v842h238l235 -344l232 344h231v-842h-198v556l-201 -312h-141l-197 312l-2 -556h-197zM307 618v680h-241v162h688v-162h-240v-680h-207z" />
    <glyph glyph-name="minus" unicode="&#x2212;" horiz-adv-x="1185" 
d="M123 457v202h942v-202h-942z" />
    <glyph glyph-name="uniF004" unicode="&#xf004;" horiz-adv-x="544" 
d="M170 -551v107q100 8 111 59h-2q-72 0 -117 41t-45 115q0 75 48 121t114 47q176 0 176 -193q0 -147 -79 -222t-206 -75z" />
    <glyph glyph-name="uniF6BE" unicode="&#xf6be;" horiz-adv-x="530" 
d="M-135 -442v256h172q102 0 102 98v1147h267v-1196q0 -164 -73 -235t-263 -70h-205z" />
    <glyph glyph-name="uniF8FF" unicode="&#xf8ff;" horiz-adv-x="1830" 
d="M489 1468h762v-245h-503v-387q121 -43 395 -199q85 -49 197 -88t210 -39l97 8q-10 -21 -70 -43q-59 -22 -129 -22q-256 0 -700 231v-684h-259v791q-49 20 -113 20t-108 -30q-45 -30 -45 -78q0 -99 76 -125q-53 2 -84 36t-31 105q0 70 69 121t189 51q29 0 47 -4v581z" />
    <glyph glyph-name="a.ss01" horiz-adv-x="1196" 
d="M577 217q105 0 171.5 83t66.5 229.5t-64.5 228.5t-173 82t-172 -85t-63.5 -226.5t65 -226.5t170 -85zM809 1059h264v-1059h-264v106q-102 -135 -274 -135q-205 0 -333 150.5t-128 405.5t129 407.5t316 152.5t290 -126v98z" />
    <glyph glyph-name="aacute.ss01" horiz-adv-x="1196" 
d="M577 217q105 0 171.5 83t66.5 229.5t-64.5 228.5t-173 82t-172 -85t-63.5 -226.5t65 -226.5t170 -85zM809 1059h264v-1059h-264v106q-102 -135 -274 -135q-205 0 -333 150.5t-128 405.5t129 407.5t316 152.5t290 -126v98zM897 1468l-264 -290h-168l151 290h281z" />
    <glyph glyph-name="acircumflex.ss01" horiz-adv-x="1196" 
d="M577 217q105 0 171.5 83t66.5 229.5t-64.5 228.5t-173 82t-172 -85t-63.5 -226.5t65 -226.5t170 -85zM809 1059h264v-1059h-264v106q-102 -135 -274 -135q-205 0 -333 150.5t-128 405.5t129 407.5t316 152.5t290 -126v98zM606 1327l-133 -149h-197l218 290h243l215 -290
h-204z" />
    <glyph glyph-name="adieresis.ss01" horiz-adv-x="1196" 
d="M577 217q105 0 171.5 83t66.5 229.5t-64.5 228.5t-173 82t-172 -85t-63.5 -226.5t65 -226.5t170 -85zM809 1059h264v-1059h-264v106q-102 -135 -274 -135q-205 0 -333 150.5t-128 405.5t129 407.5t316 152.5t290 -126v98zM813 1208q-57 0 -96 39t-39 96.5t39 96.5t96 39
t97 -39t40 -96.5t-40 -96.5t-97 -39zM415.5 1208q-57.5 0 -97 39t-39.5 96.5t39.5 96.5t97 39t96.5 -39t39 -96.5t-39 -96.5t-96.5 -39z" />
    <glyph glyph-name="agrave.ss01" horiz-adv-x="1196" 
d="M577 217q105 0 171.5 83t66.5 229.5t-64.5 228.5t-173 82t-172 -85t-63.5 -226.5t65 -226.5t170 -85zM809 1059h264v-1059h-264v106q-102 -135 -274 -135q-205 0 -333 150.5t-128 405.5t129 407.5t316 152.5t290 -126v98zM713 1178h-170l-262 290h278z" />
    <glyph glyph-name="aring.ss01" horiz-adv-x="1196" 
d="M577 217q105 0 171.5 83t66.5 229.5t-64.5 228.5t-173 82t-172 -85t-63.5 -226.5t65 -226.5t170 -85zM809 1059h264v-1059h-264v106q-102 -135 -274 -135q-205 0 -333 150.5t-128 405.5t129 407.5t316 152.5t290 -126v98zM613 1470q-52 0 -84.5 -35.5t-32.5 -89.5
t32.5 -90t84.5 -36t85 35.5t33 91t-33 90t-85 34.5zM612.5 1108q-100.5 0 -169 68.5t-68.5 168t68.5 169t169 69.5t170 -69.5t69.5 -168.5t-69.5 -168t-170 -69z" />
    <glyph glyph-name="atilde.ss01" horiz-adv-x="1196" 
d="M577 217q105 0 171.5 83t66.5 229.5t-64.5 228.5t-173 82t-172 -85t-63.5 -226.5t65 -226.5t170 -85zM809 1059h264v-1059h-264v106q-102 -135 -274 -135q-205 0 -333 150.5t-128 405.5t129 407.5t316 152.5t290 -126v98zM506 1274q-80 0 -88 -74h-156q4 126 62 192
q101 116 286 38q78 -32 107 -33q70 0 84 63h168q-18 -250 -217 -250q-57 0 -136 32t-110 32z" />
    <glyph glyph-name="g.ss01" horiz-adv-x="1212" 
d="M328 535q0 -145 61 -227t177 -81q116 0 175 81q59 80 59 228t-60 227t-173 79t-176 -81t-63 -226zM977 1059h170v-219h-39q-47 0 -47 -66v-788q0 -220 -100 -324t-302 -104h-454v225h385q110 0 156 48t49 161v110q-109 -119 -275 -118q-211 0 -335 150t-124 401
q-1 253 133 403t322 150t295 -123q29 94 166 94z" />
    <glyph glyph-name="k.ss01" horiz-adv-x="1099" 
d="M389 416v-416h-266v1462h266v-805h88l301 402h307l-391 -506l416 -553h-332l-305 416h-84z" />
    <glyph glyph-name="t.ss01" horiz-adv-x="749" 
d="M240 0v836h-205v223h205v311h266v-311h215v-223h-215v-836h-266z" />
    <glyph glyph-name="y.ss01" horiz-adv-x="1054" 
d="M143 -442v225h162q63 0 93 13.5t30 53.5v103l-414 1106h285l262 -785l205 785h274l-360 -1125v-163q0 -117 -49 -165t-168 -48h-320z" />
    <glyph glyph-name="yacute.ss01" horiz-adv-x="1054" 
d="M143 -442v225h162q63 0 93 13.5t30 53.5v103l-414 1106h285l262 -785l205 785h274l-360 -1125v-163q0 -117 -49 -165t-168 -48h-320zM412 1178l151 290h281l-264 -290h-168z" />
    <glyph glyph-name="ydieresis.ss01" horiz-adv-x="1054" 
d="M143 -442v225h162q63 0 93 13.5t30 53.5v103l-414 1106h285l262 -785l205 785h274l-360 -1125v-163q0 -117 -49 -165t-168 -48h-320zM759.5 1208q-57.5 0 -96 39t-38.5 96.5t38.5 96.5t96 39t97.5 -39t40 -96.5t-40 -96.5t-97.5 -39zM362.5 1208q-57.5 0 -97.5 39
t-40 96.5t40 96.5t97.5 39t96.5 -39t39 -96.5t-39 -96.5t-96.5 -39z" />
    <glyph glyph-name="zero.osf" horiz-adv-x="1234" 
d="M616 205q258 0 258 342q0 150 -59 247t-195 97t-198 -99t-62 -248t62 -244t194 -95zM617 1116q226 0 382 -147t156 -422q0 -145 -44 -257t-120 -178q-154 -134 -379 -135t-380 143q-154 144 -154 422t156 427q157 147 383 147z" />
    <glyph glyph-name="one.osf" horiz-adv-x="782" 
d="M367 0v672h-324v196q322 4 379 226h211v-1094h-266z" />
    <glyph glyph-name="two.osf" horiz-adv-x="1081" 
d="M74 0q0 163 67 263q67 99 192 173q48 30 160 86q111 56 167 107t57 125q0 143 -189 143q-96 0 -142 -45t-46 -117h-256q0 175 123 277t328 102t325 -86t119 -251q0 -165 -109 -261q-84 -74 -192 -131q-236 -119 -260 -170h583v-215h-927z" />
    <glyph glyph-name="three.osf" horiz-adv-x="1173" 
d="M564 -375q-236 0 -370 133t-133 375h252q14 -287 262 -287q121 0 185 60t63 170q0 225 -309 225h-39v191h25q293 0 293 215q1 86 -59 136t-156 50q-240 0 -240 -266h-252q0 235 134 361t356 126t345 -103q124 -103 123 -278q0 -111 -49 -197t-141 -120q106 -27 173 -111
t67 -219q0 -219 -147 -340t-383 -121z" />
    <glyph glyph-name="four.osf" horiz-adv-x="1169" 
d="M684 221v504h-6l-369 -504h375zM684 -338v338h-637v223l631 869h260v-871h182v-221h-182v-338h-254z" />
    <glyph glyph-name="five.osf" horiz-adv-x="1114" 
d="M788 139q0 267 -248 267q-128 0 -210 -113h-242l107 792h782v-231h-569l-46 -301q27 27 93 51t151 25q211 0 330 -129q119 -128 119 -358t-131 -372q-132 -142 -362 -141q-230 0 -362 116t-132 331h258q0 -98 61 -162t166 -64q236 0 235 289z" />
    <glyph glyph-name="six.osf" horiz-adv-x="1181" 
d="M609 193q103 0 162 75q58 76 58 199t-55 197t-163 74t-166 -76t-58 -197t59 -197q60 -75 163 -75zM612 -29q-303 0 -417 218q-103 197 -103 509q0 313 112 527q58 111 164 172t253 61q408 0 450 -391h-258q-10 80 -59 130t-136 50q-114 -1 -182 -111t-71 -315v-24l8 14
q35 61 119 101t182 40q214 0 324 -133t110 -353t-136 -358t-360 -137z" />
    <glyph glyph-name="seven.osf" horiz-adv-x="1042" 
d="M29 852v233h979v-231q-238 -248 -359 -557t-125 -639h-278q33 731 477 1194h-694z" />
    <glyph glyph-name="eight.osf" horiz-adv-x="1165" 
d="M582 182q104 0 168 66q63 66 63 173t-64 175q-65 68 -167 68t-168 -68t-66 -176t65 -172q65 -66 169 -66zM582 860q94 0 151 55t57 139t-56 139q-58 54 -152 54t-152 -55t-57 -138q0 -83 57 -139q58 -55 152 -55zM576 -29q-225 0 -360 120q-134 120 -134 321
q0 248 209 360q-74 43 -120 120t-46 177q0 177 124 283t333 106q208 0 332 -106t124 -283q0 -98 -45 -176t-119 -121q209 -94 209 -360q0 -199 -141 -320t-366 -121z" />
    <glyph glyph-name="nine.osf" horiz-adv-x="1163" 
d="M566 889q-104 0 -162 -76t-58 -200q0 -123 56 -195t164 -72t165 73t57 197t-59 198q-59 75 -163 75zM563 -375q-418 0 -461 391h256q20 -184 199 -184q246 0 254 414v26l-14 -20q-84 -123 -298 -123t-323 132q-108 132 -108 353q0 220 136 358t359 138q295 0 414 -210
q108 -191 106 -509q0 -766 -520 -766z" />
    <glyph glyph-name="zero.tf" horiz-adv-x="1214" 
d="M606 195q236 0 236 520t-236 520q-231 0 -231 -520t231 -520zM606 1458q232 0 378 -180q144 -180 144 -565t-143 -563t-377 -179q-234 1 -378 179q-142 178 -142 563t143 565t375 180z" />
    <glyph glyph-name="one.tf" horiz-adv-x="1214" 
d="M586 0v948h-357v203q178 4 283 64q104 60 131 215h211v-1430h-268z" />
    <glyph glyph-name="two.tf" horiz-adv-x="1214" 
d="M133 0q0 229 116 375q62 78 128 135t178 139q215 144 265 253q24 52 24 112q0 100 -60 153t-163 54q-231 0 -232 -279h-256q-6 246 125 379q132 133 358 133t361 -112t135 -319t-160 -364q-84 -81 -207 -159q-238 -174 -270 -269h653v-231h-995z" />
    <glyph glyph-name="three.tf" horiz-adv-x="1214" 
d="M584 -29q-234 0 -368 134t-130 376h256q10 -285 254 -284q114 0 184 61t70 166q0 231 -311 231h-39v193h24q297 0 297 203q0 86 -59 133t-166 47t-170 -66t-61 -194h-256q0 235 132 361t354 126t351 -102t129 -277q0 -106 -52 -191t-146 -120q114 -28 183 -110
q69 -81 68 -218q0 -217 -154 -343q-156 -126 -390 -126z" />
    <glyph glyph-name="four.tf" horiz-adv-x="1214" 
d="M717 526v537h-6l-383 -537h389zM717 0v309h-641v226l635 895h262v-904h180v-217h-180v-309h-256z" />
    <glyph glyph-name="five.tf" horiz-adv-x="1214" 
d="M630 -29q-234 0 -366 117q-133 117 -133 332h256q-1 -100 61 -164t170 -63q244 0 244 288q0 127 -60 198t-175 71q-166 0 -221 -115h-242l106 795h785v-232h-572l-45 -303q82 76 234 76q215 0 337 -132q121 -133 121 -359t-133 -368t-367 -141z" />
    <glyph glyph-name="six.tf" horiz-adv-x="1214" 
d="M639 193q104 0 162 74q57 75 57 199t-55 198t-163 74t-166 -78t-58 -198t59 -195q60 -74 164 -74zM641 -29q-301 0 -418 217q-104 197 -103 511t112 526q58 111 164 172t253 61q412 0 451 -391h-256q-10 78 -60 129t-137 51q-113 1 -181 -109t-71 -315l-2 -26l10 14
q35 61 119 101t180 40q215 0 325 -132t110 -353q-1 -221 -137 -359t-359 -137z" />
    <glyph glyph-name="seven.tf" horiz-adv-x="1214" 
d="M150 1182v248h983v-232q-479 -498 -490 -1198h-272q33 698 460 1182h-681z" />
    <glyph glyph-name="eight.tf" horiz-adv-x="1214" 
d="M625 178q106 0 173 67q66 67 66 177t-66 176q-66 68 -173 68q-106 0 -173 -68t-67 -178t67 -176t173 -66zM626 858q91 0 147 56t56 142t-55 140q-55 55 -148 55q-92 0 -148 -56t-56 -140t56 -141q57 -56 148 -56zM621 -29q-227 0 -366 117q-138 117 -138 313
q0 133 61 227t160 144q-74 41 -119 121t-45 182q0 171 123 277t328 106t329 -105t123 -278q0 -100 -44 -180t-118 -123q99 -45 159 -139t61 -230q1 -193 -143 -313t-371 -119z" />
    <glyph glyph-name="nine.tf" horiz-adv-x="1214" 
d="M622 688q108 0 165 74t57 200t-60 200t-162 75q-104 0 -161 -76q-57 -77 -57 -201t54 -198q56 -74 164 -74zM621 -29q-211 1 -327 103t-134 291h256q8 -89 59 -139t139 -50q246 0 254 418v27l-14 -21q-80 -123 -296 -123t-325 132t-109 353q0 220 137 358
q136 138 360 138q346 0 457 -296q61 -161 63 -429q0 -762 -520 -762z" />
    <glyph glyph-name="dollar.osf" horiz-adv-x="1040" 
d="M719 292q0 46 -30 70t-109 52v-213q72 4 106 24q34 21 33 67zM342 803q0 -33 26 -52t101 -46v176q-127 -6 -127 -78zM963 322q0 -328 -383 -349v-135h-111v135q-403 23 -395 400h243q0 -86 39 -125t113 -47v245q-4 0 -10 3q-174 43 -268 114q-93 73 -93 219t104 228
t267 90v153h111v-157q356 -31 356 -357h-244q-2 117 -112 138v-205q203 -58 293 -128t90 -222z" />
    <glyph glyph-name="Euro.osf" horiz-adv-x="1173" 
d="M662 -29q-195 -1 -327 103t-155 321h-123v121h113v25q0 16 2 20h-115v123h131q25 206 160 318t324 112q137 0 263 -65q69 -35 115 -106t52 -169h-254q-23 109 -186 109q-90 -1 -140 -55t-55 -144h369l-2 -123h-388q-2 -6 -2 -20v-25h390l-3 -121h-370q4 -92 56 -142
t142 -50q158 0 183 102h252q-27 -253 -304 -318q-65 -16 -128 -16z" />
    <glyph glyph-name="florin.osf" horiz-adv-x="817" 
d="M651 870q-69 0 -99 -18t-36 -64l-16 -122h164l-29 -166h-160l-61 -441q-27 -180 -108 -257t-273 -76h-152v237h129q61 0 87 23t34 73l68 441h-166l35 166h155l23 149q28 163 110 227t262 64h156v-236h-123z" />
    <glyph glyph-name="sterling.osf" horiz-adv-x="1171" 
d="M272 150q29 0 47 12q-25 12 -51 12t-24 -12q-1 -12 28 -12zM926 223h157v-223h-237q-201 0 -332 53q-84 -88 -233 -88q-227 0 -228 187q-1 88 61 140t160 52q45 0 80 -6q0 47 -37 131h-186v139h125q-37 96 -37 172q1 134 105 236t320 102t327 -105t110 -311h-247
q0 207 -185 207q-162 0 -162 -129q0 -61 58 -172h237v-139h-184q14 -61 14 -113t-8 -100q127 -33 322 -33z" />
    <glyph glyph-name="yen.osf" horiz-adv-x="1200" 
d="M451 0v229h-275v177h273l-103 169h-246v179h154l-221 352h332l249 -432l226 432h327l-221 -348h152v-178h-244l-109 -174h273v-177h-275v-229h-292z" />
    <glyph glyph-name="caroncomb.alt" 
d="M-229 1298h-4q-55 0 -93.5 36t-38.5 95.5t40 97.5t103 38t100.5 -44t37.5 -122q0 -272 -260 -295v108q49 4 82 28t33 58z" />
    <glyph glyph-name="uni0326.alt" 
d="M-260 1174q-76 0 -123 50t-47 140q0 135 81 212t206 77v-105q-102 -10 -111 -59h2q70 0 116 -41t46 -113t-47 -116.5t-123 -44.5z" />
    <glyph glyph-name="uni0308.case" 
d="M-155.5 1585q-57.5 0 -96.5 40t-39 96t39 96.5t96.5 40.5t96.5 -40t39 -96t-39 -96.5t-96.5 -40.5zM-608.5 1585q-57.5 0 -96 40t-38.5 96t38.5 96.5t96 40.5t97.5 -40t40 -96t-40 -96.5t-97.5 -40.5z" />
    <glyph glyph-name="uni0307.case" 
d="M-247 1563q-69 0 -117 47t-48 115.5t48.5 117.5t117 49t116.5 -49t48 -118t-48 -115.5t-117 -46.5z" />
    <glyph glyph-name="gravecomb.case" 
d="M-225 1581l-295 287h299l194 -287h-198z" />
    <glyph glyph-name="acutecomb.case" 
d="M-520 1581l196 287h297l-292 -287h-201z" />
    <glyph glyph-name="uni030B.case" 
d="M-434 1581l153 287h265l-250 -287h-168zM-791 1581l134 287h264l-230 -287h-168z" />
    <glyph glyph-name="uni0302.case" 
d="M-717 1581l221 287h244l219 -287h-203l-147 148l-137 -148h-197z" />
    <glyph glyph-name="uni030C.case" 
d="M-492 1581l-217 287h205l144 -148l137 148h194l-219 -287h-244z" />
    <glyph glyph-name="uni0306.case" 
d="M-348 1581q-135 0 -221 70.5t-93 212.5h144q18 -133 171.5 -133t182.5 133h139q-18 -143 -103 -213t-220 -70z" />
    <glyph glyph-name="uni030A.case" 
d="M-254 1599q53 0 86 36t33 91.5t-33 91t-86 35.5t-87 -36.5t-34 -91t34 -90.5t87 -36zM-256 1493q-100 0 -169 66.5t-69 165.5t69 168t169 69t170 -68.5t70 -167t-70 -166t-170 -67.5z" />
    <glyph glyph-name="tildecomb.case" 
d="M-258 1784q72 0 84 67h154q-18 -244 -213 -243q-59 0 -142.5 34.5t-113.5 34.5q-78 0 -91 -78h-141q3 121 61 185q102 114 292 34q81 -34 110 -34z" />
    <glyph glyph-name="uni0304.case" 
d="M-735 1659v141h715v-141h-715z" />
    <glyph glyph-name="uni0337.case" 
d="M-770 403v211l672 490v-211z" />
    <glyph glyph-name="uni0338.case" 
d="M-1403 -61l-98 88l1343 1491l99 -88z" />
    <glyph glyph-name="caron.alt" horiz-adv-x="321" 
d="M156 1284h-4q-55 0 -94 36q-38 36 -38 95t40 97t103 38t101 -44t37 -122q0 -271 -260 -294v108q49 4 82 28t33 58z" />
    <glyph glyph-name="acute.case" horiz-adv-x="534" 
d="M20 1581l197 287h297l-293 -287h-201z" />
    <glyph glyph-name="breve.case" horiz-adv-x="677" 
d="M334 1581q-135 0 -221 70.5t-93 212.5h144q18 -133 171.5 -133t182.5 133h139q-18 -143 -103 -213t-220 -70z" />
    <glyph glyph-name="caron.case" horiz-adv-x="720" 
d="M238 1581l-218 287h205l144 -148l137 148h194l-219 -287h-243z" />
    <glyph glyph-name="circumflex.case" horiz-adv-x="724" 
d="M20 1581l222 287h243l220 -287h-203l-148 148l-137 -148h-197z" />
    <glyph glyph-name="dieresis.case" horiz-adv-x="763" 
d="M608.5 1585q-57.5 0 -96.5 40t-39 96t39 96.5t96.5 40.5t96 -40t38.5 -96t-38.5 -96.5t-96 -40.5zM155.5 1585q-57.5 0 -96.5 40t-39 96t39 96.5t96.5 40.5t97.5 -40t40 -96t-40 -96.5t-97.5 -40.5z" />
    <glyph glyph-name="dotaccent.case" horiz-adv-x="370" 
d="M185 1563q-69 0 -117 47t-48 115.5t48.5 117.5t117 49t116.5 -49t48 -118t-48 -115.5t-117 -46.5z" />
    <glyph glyph-name="grave.case" horiz-adv-x="534" 
d="M315 1581l-295 287h299l195 -287h-199z" />
    <glyph glyph-name="hungarumlaut.case" horiz-adv-x="817" 
d="M377 1581l153 287h265l-250 -287h-168zM20 1581l134 287h264l-230 -287h-168z" />
    <glyph glyph-name="macron.case" horiz-adv-x="755" 
d="M20 1659v141h715v-141h-715z" />
    <glyph glyph-name="ring.case" horiz-adv-x="518" 
d="M260 1599q53 0 86 36t33 91.5t-33 91t-86 35.5t-87 -36.5t-34 -91t34 -90.5t87 -36zM258 1493q-100 0 -169 66.5t-69 165.5t69 168t169 69t170 -68.5t70 -167t-70 -166t-170 -67.5z" />
    <glyph glyph-name="tilde.case" horiz-adv-x="737" 
d="M485 1784q72 0 84 67h154q-18 -244 -213 -243q-59 0 -142 34.5t-114 34.5q-78 0 -90 -78h-141q4 121 61 185q102 114 292 34q81 -34 109 -34z" />
    </font>
</defs>
</svg>
